<svg width="499" height="579" viewBox="0 0 499 579" fill="none" xmlns="http://www.w3.org/2000/svg">
<path d="M315.735 0H485.056L498.004 0.961794L499 1.92359V9.61794L495.016 35.5864L484.06 116.377L477.088 159.658L471.112 203.9L465.136 246.219L459.16 283.729L455.176 310.659L449.2 353.94L443.224 399.145L439.24 429.922L433.263 468.394L427.287 510.713L422.307 553.032L419.319 570.344L416.331 577.076L409.359 579H2.98802L0 576.115V561.688L5.97605 512.636L14.9401 454.929L26.8922 369.329L33.8643 324.125L46.8124 229.869L58.7645 149.078L68.7245 75.0199L77.6886 17.3123L81.6727 3.84718L84.6607 1.92359L266.93 0.961794L315.735 0Z" fill="#A09800"/>
<path d="M116.232 239.725L117.1 240.159L117.317 241.027V241.461L119.269 243.847L122.089 246.016L124.258 247.534L126.427 248.836L130.982 251.655L134.453 253.608L136.188 254.692L139.659 256.427L143.78 258.814L147.684 260.983L150.07 262.501L153.324 264.453L158.096 267.273L160.048 268.575L164.17 270.527L167.64 272.696L172.629 275.516L176.1 277.685L179.137 279.42L181.739 280.938L184.126 282.457L189.114 285.06L191.284 286.578L193.67 287.88L195.839 289.181L200.611 292.001L202.129 292.869L205.817 294.821L209.287 296.99L211.89 298.291L216.228 300.894L218.614 302.413L222.953 304.799L225.989 306.751L229.46 308.486L232.714 310.438L235.967 312.174L240.522 314.777L242.908 316.295L247.247 318.681L250.283 320.633L253.754 322.368L257.225 324.538L260.478 326.273L263.515 328.008L265.901 329.31L266.769 329.093L266.986 329.96L269.155 331.045L271.541 331.913L272.191 332.563H272.625L272.842 333.214H274.144L275.011 332.346L275.228 331.262L275.445 331.045H277.18L284.772 327.14L289.544 324.538L293.232 322.368L296.702 320.416L300.173 318.247L304.294 315.861L307.114 314.126L312.971 310.872L322.081 305.666L325.335 303.714L329.239 301.545L332.926 299.376L336.397 297.424L341.603 294.387L346.375 291.567L349.412 289.615L352.882 287.663L358.956 283.975L365.246 280.505L366.982 279.637L368.066 279.42L370.018 280.722L370.886 281.806L370.018 282.674L368.717 283.324L367.198 283.975L363.511 286.144L360.691 287.88L356.57 290.266L353.533 292.001L350.713 293.953L347.676 295.688L342.471 298.725L337.265 301.545L326.419 308.052L320.996 311.089L314.706 314.56L312.32 315.861L309.066 317.813L304.077 320.85L300.39 323.019L290.195 328.659L287.592 330.177L283.471 332.78L280.868 334.515L277.831 336.468L275.011 338.203L274.144 337.986H273.71L273.276 339.288L272.408 339.504L272.625 339.721L273.276 340.155V340.589L274.144 340.372V339.938L275.228 339.071L278.482 337.769L283.688 334.732L289.11 331.696L291.93 329.96L296.919 327.14L302.559 324.104L307.331 321.284L312.32 318.247L317.092 315.427L321.647 312.824L327.504 309.571L331.625 307.185L334.879 305.232L340.085 302.196L345.724 299.159L350.713 296.339L356.136 293.085L361.125 289.832L366.331 286.578L370.018 283.975L371.103 283.541V282.457L371.754 282.674L372.404 283.975L373.706 285.06L373.923 286.361L372.621 288.097L370.452 289.615L366.982 291.784L364.812 293.302L360.908 295.471L355.702 298.508L350.93 301.328L340.301 307.402L334.662 310.655L329.456 313.692L323.816 316.946L320.129 319.115L314.489 322.368L310.151 324.971L307.548 326.49L305.162 327.791L301.474 329.96L299.088 331.262L293.015 334.732L288.243 337.335L284.555 339.504L278.699 342.541L275.228 343.843L273.059 344.06L272.842 344.493V344.06H272.191V345.578H271.541L271.324 346.012L271.974 346.229V346.662L271.324 346.879L272.191 347.964L272.842 348.615L273.493 347.53L275.011 346.662L275.879 346.446L278.699 344.71L284.122 341.89L287.592 339.938L290.412 338.203L295.401 335.6L298.438 333.648L302.776 331.262L307.982 328.225L312.971 325.405L315.357 323.887L319.912 321.284L323.165 319.332L327.07 317.163L330.757 314.993L335.313 312.391L340.085 309.571L344.857 306.968L347.676 305.232L353.316 302.196L357.437 299.593L361.776 297.207L365.463 294.604L366.982 294.17L367.198 295.471V327.574L366.982 438.633L366.765 503.706L365.897 505.008L363.728 506.526L358.088 509.78L354.184 512.166L350.496 514.335L345.074 517.371L341.169 519.541L335.963 522.36L330.107 525.831L324.467 529.085L317.092 533.423L310.368 537.11L305.162 540.147L299.522 543.401L293.666 546.871L289.978 549.04L284.338 552.511L280.217 555.114L275.445 557.934L274.794 558.151L274.144 557.717V557.283L273.493 557.934L273.059 559.235L272.408 559.018V558.368L270.89 558.151L266.335 555.548L261.997 552.728L255.923 549.04L251.368 546.438L247.03 543.835L242.908 541.232L237.486 538.195L232.714 535.592L228.809 533.423L219.916 528.434L216.228 526.265L210.806 523.228L205.6 520.408L200.177 517.371L190.199 511.732L184.993 508.695L179.137 505.441L174.581 502.838L168.291 499.151L162.434 495.68L153.758 490.475L147.901 487.004L144.865 485.052L140.743 482.666L136.405 480.063L131.633 477.46L126.427 474.423L123.607 472.688L122.523 471.82L121.872 470.736L121.655 469.868L121.438 379.416L121.221 338.637V298.291L121.004 285.494L120.787 260.332L121.221 260.115L121.655 261.2L125.126 263.152L129.247 265.321L134.019 267.924L137.923 270.093L141.177 272.045L145.082 274.214L147.251 275.516L151.372 277.685L152.89 278.769L156.361 280.505L160.699 283.108L163.302 284.626L165.471 285.927L170.026 288.313L175.015 291.133L179.57 293.736L182.824 295.688L187.379 298.508L194.971 302.846L197.791 304.365L201.695 306.751L204.081 308.052L207.335 310.005L210.806 311.957L213.842 313.692L217.096 315.644L220.567 317.596L223.603 319.332L226.857 321.284L230.328 323.236L234.232 325.405L237.486 327.357L240.305 328.876L244.21 331.045L246.379 332.346L251.368 335.383L251.802 334.732L250.934 334.299V333.648L252.019 334.515L253.971 335.6L254.405 335.383L255.489 336.468H256.14V336.901L256.791 336.685L249.85 332.563L248.114 331.479L247.68 331.696L247.03 331.045L246.379 330.611L245.945 330.394L244.861 329.527L239.438 326.49L236.401 324.754L234.883 324.321L234.449 323.67L233.364 323.453L232.931 323.019L232.063 322.368L227.942 319.982H227.508L226.64 319.115L222.302 316.512L217.747 313.909L213.842 311.74L210.806 310.221L209.721 309.354L208.636 308.92L208.203 308.703L207.335 308.052L206.684 307.835L206.034 307.402L205.166 307.618L203.648 306.968L202.78 306.317L201.478 305.883L198.442 304.148L197.14 303.28L197.357 302.846L202.563 305.449L201.695 304.582L197.574 302.196L193.67 300.027L191.284 298.725L188.03 296.773L183.258 293.953L182.39 293.519L181.306 292.652L180.221 292.435V292.001L174.365 288.747L171.111 286.795L166.773 284.409L164.604 283.108L163.736 282.891L162.868 282.023L159.615 280.071L157.012 278.552L156.144 278.336V277.902L154.626 277.468L153.975 276.817L149.42 274.431L147.684 273.347L145.298 272.045L144.214 271.611L143.78 271.394L143.129 270.961L142.262 270.31L141.828 270.093L139.876 268.791L135.321 265.972L132.067 264.236L128.162 262.067L124.692 260.115L122.523 258.597L118.618 256.427L115.148 254.475L112.545 252.74L110.159 251.005L108.424 249.486L107.99 248.619L108.207 247.534L108.857 246.666L110.376 247.1L112.762 248.402L118.185 251.655L123.174 254.258L127.512 256.644L129.464 257.946L132.935 259.681L135.971 261.633L139.442 263.369L143.346 265.538L145.082 266.405L148.552 268.575L151.806 270.31L153.541 271.611L157.012 273.347L160.048 275.299L163.085 276.817L165.905 278.552L167.64 279.637L169.592 280.722L171.111 281.806L174.581 283.541L176.967 285.06L178.703 285.927L181.089 287.229L184.126 289.181L186.728 290.483L188.681 291.784L193.236 294.604L195.188 295.905L198.659 297.641L201.695 299.593L203.648 300.46L207.335 302.63L209.07 303.714L213.409 306.317L216.445 308.052L218.831 309.571L222.953 311.74L225.772 313.475L228.375 314.56L230.544 316.078L233.364 317.813L238.136 320.633L242.258 323.019L243.776 323.887L247.247 325.622L250.5 327.574L252.669 328.659L255.055 330.394L257.875 332.129L260.261 333.431L265.25 336.251L265.684 335.817L264.6 335.166L264.166 334.732L263.949 334.299L264.816 334.515L265.25 334.732L264.166 333.648L258.092 329.96L255.055 328.008L252.886 326.707L249.199 324.538L239.438 319.115L235.75 316.946L232.497 314.993L228.809 312.824L225.772 311.089L222.085 309.137L217.096 306.317L214.276 304.582L211.239 302.846L207.335 300.46L202.129 297.424L198.008 295.255L195.405 293.736L193.019 292.435L184.776 287.229L180.872 285.06L176.317 282.457L174.148 281.589L173.931 280.938L172.846 280.505L170.894 279.42H170.243L169.376 278.552L168.074 278.119L166.773 276.817L164.604 275.733L163.953 275.299L163.302 274.648L161.567 273.997L160.699 273.13L159.398 272.479H158.964L158.53 272.045L155.059 270.31L154.409 269.659L153.107 269.225L152.24 268.575L150.938 268.141L149.203 267.273V266.622L148.118 266.188L146.383 265.538L145.949 265.104L144.865 264.67L143.346 263.802L143.129 263.152L138.574 260.549L137.923 260.332V259.898L136.839 259.464L133.151 257.512L129.247 255.343L123.39 252.306L119.052 249.703L115.799 247.534L113.196 245.582L111.677 243.847L111.894 242.328L113.629 241.244L116.015 240.159L116.232 239.725ZM116.449 240.159L116.666 241.027L116.883 240.593L116.449 240.159ZM132.067 272.262L131.85 272.479V316.946L132.067 318.898L130.982 319.982L129.464 320.85L129.03 321.718L130.115 322.802L131.416 324.538L130.115 323.887L129.247 322.802L128.162 322.368L127.729 323.019V325.405L129.03 327.14L129.898 327.574L130.332 328.442L131.85 329.743L132.067 330.177V335.383L131.85 342.324V355.556L131.416 356.423L127.729 358.81L127.295 359.894L127.512 361.846V364.232L127.946 366.835L128.813 368.137L133.585 371.173L138.357 373.993L143.997 377.464L149.854 380.718L155.276 383.754L160.048 386.574L164.387 389.177L173.28 394.383L177.184 396.552L183.041 400.023L188.247 403.059L192.585 405.662L202.563 411.302L206.684 413.688L211.022 416.291L218.614 420.629L223.603 423.449L228.158 426.052L232.931 428.872L235.967 430.607L245.294 435.813L248.982 437.982L253.754 441.019L255.272 441.886L257.875 442.32H259.177L260.261 441.453L260.912 439.067L261.129 437.765L261.346 429.306L261.563 385.923V348.615L261.129 346.229L260.044 345.361L253.971 341.674L248.765 338.854L245.511 336.901L240.305 333.865L235.967 331.262L227.508 326.49L221.434 323.019L217.096 320.416L211.89 317.379L206.034 314.126L201.478 311.523L195.839 308.269L191.067 305.449L185.861 302.413L180.438 299.376L176.1 296.773L169.809 293.302L166.122 291.35L162.218 289.181L159.181 287.446L154.843 284.843L149.637 281.806L146.817 280.071L143.78 278.552L133.802 272.696L132.718 272.262H132.067ZM203.431 305.666V306.317H203.864L204.298 306.968L204.732 306.751L204.515 306.1L203.431 305.666ZM265.901 334.732L265.684 335.166L267.636 336.251L268.07 336.034L266.769 334.949L265.901 334.732ZM252.669 335.6L252.236 336.034L254.622 337.552L257.008 338.854L257.441 338.637L256.14 337.769L255.272 336.901L253.32 335.817L252.669 335.6ZM265.901 336.034L265.684 336.685L267.202 337.552L268.504 337.769L268.07 336.901L266.552 336.034H265.901ZM257.008 336.901L257.225 337.335L257.441 336.901H257.008ZM257.875 337.335L257.658 337.769L258.309 337.986V337.335H257.875ZM259.611 338.203L259.177 338.637L261.346 339.721L261.997 339.504L261.129 338.854L259.611 338.203ZM258.526 339.071L258.309 339.504L259.394 339.938L259.177 339.071H258.526ZM262.864 339.938L263.081 340.372L263.298 339.938H262.864ZM260.261 339.938L259.827 340.372L260.695 340.589L260.261 339.938ZM264.816 340.806V341.457L266.118 341.89L265.901 342.324L265.033 342.541L264.816 342.975L268.287 345.144L269.588 346.012L270.456 345.795L270.239 344.927L268.721 344.276L268.07 343.843L267.853 343.192L268.504 343.409L268.287 342.107L264.816 340.806ZM261.997 340.806L261.563 341.24H262.213L261.997 340.806ZM263.732 341.674L263.298 342.107L263.949 342.324V341.89L264.383 341.674H263.732ZM170.894 416.942L170.026 418.026V426.486L170.46 429.306L171.545 430.607L176.751 434.078L180.004 436.03L182.39 437.765L185.427 439.717L188.681 441.67L191.284 443.188L194.32 444.923L197.574 446.875L199.743 447.743L202.346 448.394L202.563 447.526L201.695 446.875V446.225L202.346 446.008V446.658L203.431 447.092L203.648 447.96H204.298L203.648 448.394L204.515 449.044L204.081 449.261L205.383 450.129H205.817L206.034 449.478L204.949 448.394L205.6 448.611L205.817 447.96L204.298 447.092L203.648 446.875L202.997 445.574L203.431 443.622L203.864 442.32V440.151L203.648 439.5H204.081V438.633L200.177 439.283L198.442 439.067L196.273 438.199L193.453 436.681L192.368 434.945L191.284 432.993V432.342L193.67 432.776L198.875 435.162L201.478 436.681L204.081 438.416L204.732 439.067L208.203 440.802L214.493 444.489L217.096 446.225L218.397 447.309L219.265 449.261V453.6H217.313L214.493 452.515H214.059V452.081L213.192 451.864L212.975 452.515L213.842 454.25L215.578 454.033L216.011 454.25L216.445 454.033V454.684L217.096 455.118L216.662 455.986L218.397 457.07H218.831V457.504L220.783 458.589H221.217L221.651 457.504V456.419H221L220.567 455.769L221.868 455.335V449.261L222.085 447.743L221.217 445.791L219.265 444.272L215.795 442.103L210.372 438.85L204.298 435.379L198.008 431.909L193.019 429.089L189.548 426.92L185.21 424.317L181.089 421.931L177.184 419.762L175.015 418.46L172.412 417.159L170.894 416.942ZM144.648 421.931V424.967L145.082 427.353L145.298 427.787H145.732V432.776L145.515 436.247L145.082 438.85L144.865 444.056V474.857L144.648 475.508V478.327L145.298 478.111L145.082 478.978L144.648 479.412L145.082 481.147L147.468 482.666L149.42 484.184L151.806 485.486L152.89 486.353L155.927 487.872L160.699 490.475L164.82 492.644L168.291 494.596L179.353 501.103L184.342 503.923L189.982 507.177L194.971 510.213L200.828 513.684L206.25 516.938L211.239 519.757L216.662 523.011L221.651 526.048L225.122 528.217L230.761 531.471L236.835 534.724L240.305 536.677L244.644 539.279L248.982 541.449L249.199 533.64V504.791L248.982 482.449L247.68 480.93L242.041 477.677L233.364 472.471L224.471 467.265L219.699 464.662L216.662 462.927L212.975 460.758L208.42 458.155L202.563 454.684L195.405 450.997L192.802 449.912L186.078 446.225L182.824 444.272L161.784 432.125L155.71 428.438L152.457 426.486L148.118 423.666L146.383 422.581L144.648 421.931ZM206.684 449.912V450.346L206.25 450.563L207.335 450.997V450.563L207.769 450.346L206.684 449.912ZM211.456 451.214L212.107 452.081H212.975L212.758 451.431L211.456 451.214ZM208.42 451.431L208.636 451.864H209.07V451.431H208.42ZM215.361 454.901L216.011 455.552L216.228 455.118L215.361 454.901Z" fill="#FEFCFC"/>
<path d="M206.033 71.4028L207.334 71.6197L211.022 73.5719L213.191 75.0903L215.577 76.8256L216.228 77.6933V78.1271L218.397 78.5609L222.301 80.2962L224.253 81.5977L225.989 82.8991L227.941 84.2006L228.158 84.8513L224.687 85.2851L224.037 85.502L223.82 86.1528L223.169 85.9359L222.952 87.0204L221.651 87.4542L221.867 88.5388H222.301L222.084 87.8881L222.518 87.6712V88.105L224.687 87.2373L224.904 86.8035L225.555 87.0204L227.724 86.3697L227.941 85.502L229.025 85.2851V85.9359H230.761L232.713 86.8035L237.702 89.4064L242.691 92.2263L244.86 93.5278L247.463 94.8292L254.187 98.9505L257.007 101.12L257.875 101.987L258.092 102.638L260.044 103.289L260.478 103.723L260.261 105.024L258.959 106.109V107.41L259.176 107.844H260.261L259.827 109.145L260.044 111.098L260.695 111.314L260.478 112.833L260.044 113.917L258.742 113.484L254.404 111.314L250.066 108.495L248.114 107.41L244.643 105.458L238.786 102.204L236.4 100.903L229.676 96.7814L221.867 91.5756L219.698 90.0572V89.6234L218.614 89.1895V88.5388L220.349 87.8881L220.783 87.4542H218.614L216.662 87.6712L216.011 88.5388L216.228 90.0572L217.746 91.5756L220.783 93.7447L224.253 95.9138L227.507 98.0829L234.665 101.987L239.003 104.373L242.908 106.542L247.029 109.145L254.621 113.7L258.742 115.87L260.044 116.737L260.695 116.52V114.351L261.128 112.182L260.911 106.542L261.345 104.373L261.996 104.156L265.25 105.458L268.069 106.542L269.154 107.193L269.371 106.759L271.323 107.627L271.54 108.495L272.408 109.362H273.275L273.492 110.447V119.34L273.275 122.594L273.058 123.028L272.842 126.715V140.381L273.058 149.925L273.275 147.539H273.709L273.926 143.851V111.531L274.794 108.495L275.228 107.41L275.444 106.326L276.095 106.109H277.83L281.084 104.59L284.338 103.506H285.205V108.278L285.422 111.531V116.087L286.073 116.303L288.676 115.219L294.099 112.399L297.352 110.447L302.341 107.41L304.511 105.892L307.764 103.939L310.367 102.638L310.801 102.204L311.235 99.6013L311.452 96.3476V88.9726L312.319 87.6712L318.827 82.8991L320.562 81.8146L321.213 82.0315V111.531L321.646 134.09V140.597L319.694 142.116L316.874 143.851L312.536 146.237L307.547 149.057L303.209 151.443L294.75 156.432L292.797 157.517L292.364 157.95L288.893 159.686L284.772 162.289L281.735 164.024L278.698 165.976L276.963 167.061L276.312 167.711L276.529 168.362L276.312 169.447H276.746V168.796L277.614 167.928H278.047L278.264 167.494L280.216 166.844L283.904 164.675L285.422 163.807H286.073V163.373L288.676 162.072L291.93 160.119L295.4 158.384L294.099 158.601L289.11 161.204L286.941 162.722L283.253 164.675L282.169 165.325H281.735V164.891L284.772 163.156L286.507 161.855L289.11 160.553L291.062 159.252L292.364 158.818V158.384L293.448 157.95L294.099 157.3H294.75V156.866L296.702 155.998L298.437 155.347L298.654 155.781L298.003 156.432L297.352 156.866L298.654 156.215L299.955 155.781L300.389 155.13L303.86 153.612L307.981 151.443L312.753 148.84L316.441 146.671L319.694 144.502V144.068L320.562 143.417L319.477 143.851L318.827 143.634L320.996 142.116L322.948 141.899L326.635 141.682L325.985 142.333L322.514 144.068L316.658 147.539L313.838 149.274L308.415 152.311L303.426 154.914L300.606 156.432L298.654 157.517L297.569 157.95V158.384H296.702L297.352 158.601L298.871 158.167L300.606 157.3L302.558 156.432L304.077 155.781L306.029 155.13V155.564L302.558 157.3L300.606 158.384L300.823 159.252L306.246 156.215L311.452 153.178L315.356 151.009L320.345 147.972L324.466 145.369L327.069 143.634L327.937 143.2L328.588 145.153L329.238 149.925L329.021 151.443L325.768 153.612L321.43 156.215L315.79 159.469L309.716 162.939L304.511 165.759L294.099 171.833L288.676 174.869L286.29 176.388L284.121 177.689L281.735 178.991L279.783 180.075L279.349 180.509L277.83 180.943V181.594L279.349 181.377L278.915 182.027L276.963 182.461L276.095 182.895L275.444 184.197V185.281L276.529 185.064L277.397 183.98H277.83L278.047 183.329H278.481L278.698 182.678L279.566 182.244L283.253 180.075L285.639 178.774L287.808 177.689L289.11 176.822L289.761 176.171L291.496 175.303H292.147V174.869L293.665 174.219L295.617 173.134L296.919 172.7L298.871 171.616H299.522L300.389 170.748L301.474 170.965L301.691 171.182V170.097L302.341 170.314L302.558 169.88H302.992L303.209 169.447L304.511 169.013L305.378 168.145H306.246V167.711L307.33 167.278L307.981 167.494L307.764 166.627H308.632L309.283 166.41L309.716 165.542L311.235 165.325V164.891H311.669V165.542H312.319V164.241L312.753 164.458V164.891L313.187 165.108L312.536 165.325L312.753 165.976L311.886 167.061L311.235 167.278L311.452 168.145L315.79 165.759L321.43 162.289L325.551 159.686L327.937 157.95L329.238 156.432L329.021 155.564L329.672 155.347L330.106 154.914L330.757 155.781L332.058 159.252L333.143 163.59L331.624 164.891L328.588 166.627L324.033 169.447L320.996 171.182L316.658 173.785L310.801 177.039L302.341 182.027L298.654 184.197L294.533 186.583L289.11 189.619L284.555 192.439L281.084 194.391L276.746 197.428H276.312L275.011 200.031H274.577L273.926 196.561L274.143 194.608V188.969L274.577 187.45L275.011 186.583L274.36 185.932V182.027L274.143 181.377L273.709 178.557H273.275V176.171H273.926L274.36 174.652L274.577 171.833L275.228 171.616L275.444 170.097V169.664L274.577 169.88V168.362H273.709L273.275 170.965L273.058 171.616L271.974 171.833L272.625 173.568L272.842 175.737L273.058 177.255L273.275 181.594H272.842L272.625 183.329L273.058 184.413V186.149L272.191 185.715L271.974 185.064L271.106 184.847L270.456 184.413L269.154 183.98V183.546L267.853 183.329V183.763L269.371 184.413V184.847L270.239 185.281L271.106 185.932L272.191 186.583L272.842 188.969V189.402L273.058 189.836H272.625L272.842 190.704V192.005L273.058 192.656V194.391H273.492L273.709 196.561L272.625 196.994L272.842 198.296V200.248L272.625 201.116L272.842 201.766H272.408L272.842 203.719L273.058 205.888L273.275 207.189L273.058 208.924L273.492 209.358L273.275 210.443L273.058 213.046V216.95L272.191 217.167V218.035L272.408 219.77L272.625 220.855L272.842 224.759L273.275 228.013L273.492 228.88L274.143 229.097L274.36 226.711V218.902L274.577 218.469V216.95H275.011L275.228 216.082L276.746 214.781L276.963 214.13L275.661 213.696L275.444 215.432L274.577 215.866L274.36 210.009L273.926 209.792L274.143 208.274V205.454L274.577 202.851L275.444 201.983L276.095 202.2L277.397 201.549L276.529 201.766V201.116V200.682L278.481 199.163V198.513H279.132L279.349 197.645L280.216 197.428L280 196.127L280.867 196.344L281.518 195.693L283.253 195.476V195.042H284.338L285.205 194.174H285.856V193.741L286.941 193.307H287.591L287.808 192.656L289.11 192.005H289.544L289.761 191.572H291.062V192.005L290.194 192.222V193.741L291.279 193.307H291.713H292.364H292.797L294.099 192.656L294.533 192.222L297.569 190.704L303.643 187.016L307.547 184.847L313.838 181.377L317.308 179.425L322.514 176.388L325.985 174.219L330.757 171.182L333.36 169.23L332.926 168.796L333.36 167.494L333.143 165.325L333.794 165.976L335.095 169.88L335.963 172.266L336.83 175.52V176.605L333.577 178.34L329.672 180.943L325.551 183.546L321.646 185.715L318.176 187.667L313.404 190.487L307.981 193.524L303.209 196.344L298.003 199.38L292.58 202.417L288.676 204.586L283.036 207.84V208.274L282.169 208.491L283.47 208.924L284.121 207.84L284.989 208.274L286.29 207.623L286.941 207.84L287.158 207.189L289.327 206.321L291.496 205.237L291.93 205.454L291.713 204.803L293.448 204.369L293.231 203.935L294.966 203.719V203.068L295.834 202.851L296.919 203.068L296.268 203.719L299.088 203.935V204.586L301.04 203.285H301.474L301.257 202.417L302.775 201.983H302.992V201.549L303.643 201.766L307.113 199.814L307.33 198.73L309.066 198.513V198.079L308.415 198.296V197.862L309.066 197.645L309.716 196.994L312.536 195.91L312.97 196.127L313.404 195.259L313.838 195.476V195.91L316.874 194.391L320.345 192.439L323.382 190.704L326.635 188.752L331.408 186.149L335.746 183.98L336.396 183.546V182.895L336.613 182.678L337.047 180.726H337.264V182.027L337.047 182.461H337.481L337.264 179.858L336.396 180.075L335.963 180.726L335.095 180.509L335.529 179.208L336.396 178.774L337.047 178.557L336.83 177.255L337.698 178.123L339.433 182.678L340.518 184.847L341.168 188.969L339.867 189.836L336.83 191.355L333.794 193.307L329.021 196.127L325.334 198.296L319.911 201.549L316.441 203.502L311.235 206.538L305.595 209.792L300.389 212.829L295.834 215.432L289.977 218.685L284.121 222.156L280 224.759L277.18 226.277H277.397L279.783 225.843L279.566 226.494L277.614 227.362L276.312 227.796L274.794 230.182L272.842 230.832L271.323 229.748L270.672 229.531V229.097L269.805 228.663L267.419 227.145L266.985 226.494L267.202 225.843L265.9 225.41L266.117 224.976H265.467L265.033 224.542L265.467 224.325L264.816 224.108L263.948 223.241L262.213 222.373L261.345 221.722H260.911L260.478 221.288L260.044 221.071L258.092 219.77L253.536 217.167L246.595 213.263L243.342 211.31L241.389 210.226L234.882 206.321L230.544 203.935L227.724 202.2L223.82 200.031L217.746 196.561L213.191 193.741L208.419 190.921L203.43 188.101L199.092 185.715L197.573 184.847L193.452 182.461L188.68 179.641L184.559 177.255L183.691 177.039V176.605L181.522 175.737L181.088 175.52L177.618 173.351L175.232 171.833L174.798 172.05L174.364 171.399L174.147 171.616L175.232 172.7V173.134L176.316 173.568L178.051 174.436L178.485 174.219V174.652L180.221 175.086L180.871 175.737L181.522 175.954L182.173 176.822V178.123H180.871V177.689L179.787 177.906H179.57L178.485 177.689L177.834 177.906L176.75 177.255L176.099 177.039L175.882 175.737L175.448 175.303L175.665 174.869H175.015V175.303L173.062 174.869L173.279 176.171L172.412 175.303L171.327 173.351V173.568V174.219L170.893 174.436L171.327 175.303L174.581 177.472L178.485 179.858L183.257 182.678L187.379 184.847L191.066 187.016L196.489 190.053L200.827 192.656L205.599 195.259L208.419 196.994L211.673 198.73L214.709 200.465L220.783 204.152L222.952 205.454L239.654 214.998L242.474 216.733L248.114 219.987L250.934 221.722L255.055 223.891L258.742 226.06L263.081 228.446L264.165 229.097L263.948 228.446H264.382L263.948 227.362L263.731 226.928H265.9L266.334 228.013L267.419 228.23L268.72 229.097L268.937 229.965L269.588 230.182V230.616L270.672 230.832L271.323 231.266L271.757 232.351L272.191 233.869L272.625 234.086L272.842 234.954V240.16L273.058 241.244H272.625L273.058 243.196V245.149L272.625 246.233L272.408 248.402H272.842V248.836H272.408L273.058 251.222L272.842 251.656H272.408L272.842 253.825L272.625 256.862L273.058 257.512L273.275 259.248L273.492 260.332H273.275L273.058 262.285L272.842 262.501V263.803L273.275 264.671L272.625 264.454L272.842 264.887H273.275V265.321H272.842L273.058 266.406V267.273H273.492L273.709 269.009H273.058L272.842 269.443V271.395L273.492 272.046L274.143 272.262L274.36 271.829V269.876L274.143 269.66V267.273L274.36 262.501V261.417L275.661 261.2L276.095 261.417L276.312 260.332L278.264 258.38L278.698 258.163V257.512L279.783 257.296L278.915 256.428L276.746 257.946H276.312L276.095 259.031H275.661L275.444 260.332L275.011 260.983H274.143V258.163L274.577 257.296L274.143 251.656L273.926 250.354H273.275L273.492 248.402L274.36 248.185L274.577 246.667L276.312 246.016L278.047 244.932L277.83 244.715V244.064L279.132 243.413V242.979L280.216 242.763V242.329H279.783V241.895L280.867 241.027H281.518V240.377L283.036 239.726L284.772 238.858L286.507 239.292L286.941 238.858V238.641H288.459H289.11L289.977 238.424L290.411 238.207L290.628 238.641L296.485 235.388L299.305 233.652L304.727 230.399L308.415 228.23L314.705 224.759L320.779 221.505L325.985 218.469L330.106 216.082L333.794 213.913L336.83 212.178L341.602 209.575L344.856 207.406L345.29 206.321V204.586H345.724L346.808 207.189L347.893 209.358L348.76 213.913L348.11 214.564L343.988 216.733L340.952 218.685L335.095 222.156L330.54 224.976L325.768 227.796L322.731 229.531L318.61 231.917L312.97 235.171L305.378 239.509L300.606 242.329L294.316 245.799L289.761 248.402L284.338 251.656L280.867 253.608H281.301H281.952L282.386 253.174H283.904L284.772 252.957H285.422L286.073 252.307H287.375V251.873L286.941 251.656L288.676 251.439L289.544 250.571L291.062 250.788L290.628 251.222H289.977L289.761 251.873L288.242 252.307L289.327 252.524V252.957L289.761 253.174L289.11 253.391H288.242L287.375 252.957H286.941V253.391L287.591 253.174V253.825H285.639V254.259H286.724L287.158 255.126L293.231 251.873L298.22 249.053L310.367 241.678L315.573 238.858L320.128 236.255L324.033 234.086L329.021 231.266L332.275 229.314L336.83 226.711L342.47 223.674L345.507 221.939L348.11 219.987L349.845 218.469L350.713 219.553L351.58 221.071L352.231 223.457L352.665 226.928L348.977 228.663L343.771 231.7L339.433 234.303L333.36 237.991L326.852 241.895L320.779 245.365L316.658 247.751L313.187 249.704L308.632 252.524L303.426 255.56L298.871 258.163L296.268 259.682L289.11 263.586L284.338 266.623L282.386 267.924L282.169 268.792L280.867 269.226H280.433L279.566 270.527L278.915 270.31L278.264 270.744L278.698 271.178L280 270.744L280.216 270.31V270.744L281.952 270.31L282.169 271.178L281.301 271.395V272.262H280.867V271.829H280.433L280 272.696V272.262H279.566L279.349 272.913L277.83 272.696L276.963 273.13H276.095L275.878 274.215L274.577 275.299H273.926L273.709 276.384H272.842L272.408 277.685L271.757 277.902L272.408 278.553V278.987H272.842L273.275 279.637L274.143 279.421L274.794 277.902L275.444 277.034V275.95L276.312 275.516L276.529 276.167L280.216 274.215L281.518 273.347L281.952 272.913L283.687 272.046L283.904 270.961L284.555 270.744L284.772 271.395L289.327 268.792L294.316 265.972L299.088 263.152L305.161 259.465L309.499 256.862L313.404 254.693L318.176 252.09L324.683 248.619L328.371 246.45L332.709 243.847L338.566 240.593L343.555 237.774L349.194 234.737L350.713 233.869L349.628 234.086L350.062 233.218L350.713 232.134V231.483L351.797 231.917L352.665 231.266V230.616H353.532L353.099 230.182H352.014L352.882 228.013L353.532 228.88L354.4 231.049L356.135 236.255L356.569 237.991V239.075L354.834 240.377L350.496 242.763L346.157 245.365L342.036 247.751L338.782 249.704L333.577 252.74L329.238 255.343L323.165 258.814L317.525 262.068L315.356 263.369L309.066 267.057L305.812 269.009L296.702 274.215L291.062 277.468L286.724 280.071L282.819 282.457L280.65 283.976L279.132 284.843V285.494L276.963 286.579L275.011 288.748L274.143 288.531L273.492 288.748L273.058 289.832L272.191 289.615L272.408 291.568L272.625 292.869L272.842 293.086V294.387H273.275L273.709 293.52L273.926 293.303H274.36L274.577 292.001L275.661 291.134L279.566 289.182L280 288.531H280.65L289.327 283.325L295.4 279.854L301.04 276.601L304.944 274.215L311.018 270.744L316.007 267.924L321.863 264.671L325.551 262.718L329.455 260.332L334.01 257.729L339.216 254.91L343.771 252.524L348.543 249.921L352.014 247.968L356.786 245.149L357.22 243.847L357.003 241.895L357.654 242.546L358.738 245.149L359.823 247.968L360.474 251.005L360.257 252.09L356.352 254.259L351.58 257.079L346.157 260.332L343.121 262.068L340.952 263.369L314.922 278.553L311.669 280.505L306.897 283.325L302.341 285.928L298.871 287.88L294.316 290.483L290.845 292.435L288.025 294.17L282.386 297.424V297.641V298.075H283.036L283.253 297.424V298.075L284.338 297.424L284.772 297.641L284.989 297.207L287.158 296.556L289.544 295.472L289.977 296.123L289.327 296.34L289.544 296.556L290.194 296.34L290.845 295.689L291.713 295.906L292.147 295.689L292.58 294.821L293.448 295.038L294.099 294.17L294.75 294.387L296.051 294.17V293.737H296.485V293.303L297.569 292.869L298.654 293.086L307.981 287.663L311.235 285.711L315.356 283.325L315.139 282.891L315.79 282.674H316.441L318.61 281.373V280.939L319.694 280.505H320.128L320.345 280.071L321.646 279.854L321.43 279.637L319.26 280.505L318.61 280.288L320.996 278.77L323.382 277.468H324.033V277.034L325.117 276.818L324.683 277.468L325.334 277.685L325.117 277.902H325.551V277.468L327.72 276.384L332.709 273.564L335.963 271.612L341.602 268.575L346.591 265.755L350.496 263.586L355.268 260.766L358.738 258.597L360.474 257.296L360.257 256.862L360.474 256.211L361.341 255.994L362.643 257.729L363.51 259.899L364.161 262.718L363.944 264.237L362.209 265.755L358.955 267.49L353.966 270.31L351.58 271.612L348.327 273.564L342.687 276.818L338.349 279.421L334.661 281.59L330.106 284.193L324.466 287.446L321.43 289.182L313.838 293.737L309.283 296.34L300.823 301.112L295.617 304.148L291.279 306.534L287.158 308.92L284.772 310.222L284.338 310.656L283.036 311.09L281.518 311.957L281.301 312.391L280.216 312.608L279.566 313.259L278.915 313.476H279.349L286.073 310.439L286.941 310.656L284.772 311.957H284.338V312.391L286.724 311.09H287.158V310.656L293.231 307.619L295.834 306.101H296.919V305.667H297.352V305.233L298.437 304.799L298.654 304.365H299.088L301.04 304.148V303.715L301.908 303.498H302.558L303.426 303.281L302.992 304.365H302.341V304.799H301.908L301.691 305.233H301.04L301.257 305.884H300.823V306.317H300.389V305.884H299.738L299.955 306.751L303.426 305.016L309.499 301.329L314.055 298.726L316.224 297.424L324.683 292.652L328.588 290.483L331.841 288.531L336.613 285.711L340.735 283.325L355.918 274.865L360.69 272.046L365.246 269.226H366.113L366.981 270.961L367.632 273.998L367.849 276.601L367.198 277.251L363.077 279.421L360.257 281.156L357.437 282.674L352.882 285.277L348.977 287.446L345.29 289.832L340.084 292.869L335.312 295.689L330.974 298.292L328.588 299.593L324.683 301.762L318.827 305.233L313.838 308.053L309.283 310.656L304.294 313.476L302.125 314.777L299.088 316.512L294.75 319.115L284.989 324.755L282.603 326.056L277.614 328.442L276.529 328.876L276.095 329.744L274.36 330.395L271.54 330.612L270.022 330.178H268.503L268.069 329.961V329.527L267.419 329.31L267.636 328.876L268.286 329.31H269.588L268.937 328.659H268.286V328.225L266.985 327.792L263.514 326.056L258.308 323.237L249.415 317.814L240.305 312.608L234.014 309.137L222.952 302.63L217.963 299.81L213.408 297.207L209.504 295.038L204.948 292.218L201.912 290.483L198.658 288.531L192.584 285.06L187.595 282.24L183.908 280.071L180.654 278.119L171.11 272.479L166.338 269.876L163.301 268.141L160.048 266.189L156.143 263.803L150.287 260.332L145.949 257.729L140.092 254.476L134.886 251.439L130.548 248.836L126.86 246.45L124.474 244.932L120.353 241.895L119.269 241.027L118.401 239.943L118.618 239.075L121.004 237.557L122.088 236.689H122.522L122.739 235.821L124.257 234.086L125.125 232.568L125.993 232.351L128.162 233.869L131.632 236.038L133.802 237.557L134.886 238.207L135.32 238.641L135.103 239.726L134.235 239.509V239.075L133.151 238.858V238.424L132.283 237.991V237.557L131.199 237.34L130.114 236.255L129.463 235.821L127.294 235.171H126.643V235.604L128.813 237.34L130.114 238.207L132.066 239.292L132.5 239.509L132.717 240.81L132.066 241.027L131.199 240.16H130.331L129.897 239.292L128.596 238.424L125.993 236.472H124.474L124.691 237.123L127.511 238.858L131.632 241.027L135.32 243.196L139.875 245.799L144.647 248.619L148.118 250.571L152.673 253.174L154.625 254.259L163.735 259.465L168.29 262.285L173.062 265.104L178.702 268.141L180.871 269.443L185.426 272.046L191.5 275.733L197.14 278.987L201.912 281.59L202.562 281.373V282.023L205.816 283.976L208.853 285.711L217.312 290.7L220.349 292.435L225.121 295.038L226.423 295.689H227.29V296.34L229.025 297.207L229.459 296.773L230.761 296.99L230.978 297.424L229.893 297.641L230.978 298.509L234.448 300.461L239.871 303.715L246.812 307.619L250.066 309.354L250.283 308.487L249.632 308.053L249.849 307.185L249.415 306.317L248.981 306.101V305.667L248.331 305.45L248.547 305.016L249.632 304.799L250.283 305.016L250.717 305.45H251.584V305.884L253.536 306.534L254.621 306.751V307.185L255.272 306.968V307.619L255.922 307.402L256.79 307.836V308.27L257.658 308.053L253.32 305.45L248.764 302.63L242.474 299.159L238.786 297.207L236.4 295.906L233.364 294.17L230.544 292.435L225.772 289.398L221.217 286.795L211.456 281.373L206.684 278.553L201.695 275.516L198.224 273.564L193.018 270.744L184.559 265.972L175.015 260.332L169.809 257.512L165.254 254.91L161.566 252.74L158.529 250.788L153.757 247.968L148.335 244.932L143.346 242.112L137.489 238.858L133.151 236.038L128.596 233.218L126.86 231.917V231.266L129.246 226.928H129.68L130.114 226.06L132.5 223.241L134.235 221.505H134.669L135.103 220.204L137.272 216.299L138.791 214.781L140.743 211.961L141.61 211.527V211.094L142.478 211.31L143.563 211.744L144.213 211.961L143.779 210.443L143.996 208.708L145.298 206.321L145.949 205.671H146.382L146.816 204.803L148.335 202.851L150.938 198.73L152.239 196.561L153.757 195.259L155.493 192.656L157.662 190.053L161.132 184.847L162.868 183.112L164.603 180.943L165.471 181.16L166.989 182.244V182.678L167.64 182.895V183.329L168.724 184.413V185.064L169.809 185.281V185.932L168.724 186.149L168.507 186.799V186.149L166.555 185.932V185.498L164.169 184.847L163.085 184.63L163.952 185.715L167.857 188.101L171.544 190.487L175.448 192.873L183.04 196.994L186.945 199.38L189.331 200.682L192.368 202.417L197.14 205.237L198.875 206.321L206.467 210.443L210.154 212.612L214.276 214.998L219.048 217.818L221.434 219.336L223.603 220.638L228.375 223.457L231.845 225.41L234.231 226.711L237.268 228.446L239.437 229.531L241.389 230.832L244.86 232.785L247.897 234.737L253.536 237.991L257.658 240.16L260.478 241.895L267.419 245.799H268.286L268.937 245.582L269.154 246.233L270.456 246.016L271.54 246.233V245.799H271.974V244.064H271.54V243.63L270.672 243.847L269.588 243.63V244.715H268.286L267.636 244.281L266.768 242.329L266.551 242.979V242.329V243.196L266.985 243.847L265.033 243.413L264.382 242.763H263.514V241.678L262.864 242.112V240.81L262.647 241.244L261.779 241.027L260.261 239.509V239.943H260.695V240.377L259.61 239.943L259.176 239.509H258.525V238.641L257.875 238.858L257.007 238.424L256.79 237.991L255.922 237.774V237.123L255.272 237.34L254.838 236.906L253.97 236.689L253.103 236.255L252.886 236.038L252.669 233.869L251.15 233.652V233.218L250.283 233.002L248.981 231.917L248.547 231.049L248.981 231.266L249.415 230.616L250.283 231.049V231.483H251.367L252.452 232.568L253.103 232.785V233.435H254.404L255.489 233.652V234.086L256.356 234.303V234.954L257.224 234.737L258.308 235.604L260.261 236.472L260.911 236.689V237.123L261.562 237.34V236.689L261.128 236.472L260.478 236.038L260.044 235.821L258.959 234.954L256.139 233.218L251.367 230.616L246.378 227.796L240.956 224.759L236.617 222.156L232.496 219.553L226.856 216.516L222.518 214.13L217.963 211.527L212.757 208.274L207.551 205.237L201.912 202.2L198.441 200.248L194.754 197.862L192.801 196.777L189.982 195.042L186.511 193.09L183.474 191.355L176.75 187.884L170.893 184.413L167.423 182.244L165.687 180.943L165.471 179.858L166.338 177.689L168.507 174.436L170.243 172.7L171.978 170.314L173.713 168.579L175.665 165.108L177.401 163.156L179.57 160.119L181.305 158.384H181.739L182.173 157.083L183.908 154.263L185.643 152.311L188.029 149.274L188.68 148.189L191.066 143.634L192.368 141.682L193.018 141.465L193.452 142.333V140.814L194.103 140.381H196.055L195.838 139.73L196.706 137.778L198.224 134.307L199.526 132.572L200.61 130.836L201.261 129.535L201.695 129.318L202.779 130.403L204.948 131.921H205.599L205.816 132.355L206.901 132.572V132.138H206.467V131.704L205.382 131.27L202.129 129.101L202.345 128.234H202.996V127.8H204.298L204.948 127.583L205.165 125.847L205.382 104.807L205.599 72.9212L206.033 71.4028ZM215.577 81.1638V82.4653H215.794V81.1638H215.577ZM216.228 82.0315L215.794 82.8991V84.4175L216.445 86.3697L217.312 86.5866L217.746 85.2851L216.878 82.4653L216.228 82.0315ZM258.092 103.506L258.525 104.59L258.742 103.939L258.092 103.506ZM204.298 128.667L204.081 129.101H204.731V128.667H204.298ZM204.731 129.101L205.599 129.969V129.318L204.731 129.101ZM206.25 129.969L206.033 130.403L205.599 130.62L206.901 131.487L208.419 132.355L209.72 133.222L212.106 134.741L213.842 136.042L215.143 136.259L215.794 136.91L218.397 137.995L218.614 137.344L217.529 136.91L216.878 136.259L213.842 134.524L208.202 131.053L206.25 129.969ZM201.261 133.439V134.09L202.996 135.392L203.213 134.958H202.779L202.562 134.09L201.478 133.873L201.261 133.439ZM203.647 134.741V135.175L204.081 134.958L203.647 134.741ZM209.937 134.741L210.154 135.175L210.805 134.958L209.937 134.741ZM203.864 135.392V136.042L204.298 135.825L203.864 135.392ZM205.382 136.693L205.816 137.127V136.693H205.382ZM205.816 137.127L206.684 137.561V137.127H205.816ZM219.481 137.995L219.698 138.645L220.132 138.211L219.481 137.995ZM207.551 138.211L208.202 138.645V138.211H207.551ZM220.566 138.645V139.296L221 139.079L220.566 138.645ZM222.084 139.73L222.735 140.381L223.169 139.947L222.084 139.73ZM196.272 140.381L196.489 141.248L196.706 140.814L196.272 140.381ZM223.82 140.597V141.031L224.47 141.248L224.687 140.814L223.82 140.597ZM197.573 141.031L197.14 141.682L198.658 142.333L199.526 141.899L198.007 141.031H197.573ZM225.772 141.682L225.989 142.116L226.206 141.682H225.772ZM199.743 142.116V142.767L200.176 142.55L199.743 142.116ZM194.32 142.116L193.886 142.55L194.103 143.2H193.669L194.103 144.502L197.14 146.671L200.827 148.84L203.647 150.575L204.948 151.009L204.515 150.358L204.948 150.142V149.708L203.864 149.274L204.298 148.406L203.864 147.322H203.213L202.996 146.671H202.129V146.237L200.61 145.803H200.176H199.743V145.369H199.092V144.936H198.658L198.441 144.502V145.153H198.007L197.79 144.285L196.923 143.634H196.489L195.621 142.767H194.97L194.32 142.116ZM226.639 142.333V142.767L227.073 142.55L226.639 142.333ZM321.43 142.767L321.213 143.2L322.08 142.767H321.43ZM201.261 142.983L201.478 143.634L202.129 143.851L202.345 143.417L201.261 142.983ZM228.158 143.2L228.375 143.851L229.242 143.634L228.809 143.2H228.158ZM217.312 143.634L217.963 144.068V143.634H217.312ZM229.893 144.068L229.242 144.502L230.544 144.719L230.761 144.285L229.893 144.068ZM230.327 144.936L230.978 145.586L231.628 145.369L231.195 144.936H230.327ZM231.845 145.803V146.237L232.93 146.671L233.798 147.322H234.448L235.316 148.189L237.268 149.491L239.654 150.792L240.739 151.226L241.606 151.877L243.559 152.961L244.643 153.395L246.595 154.697L249.198 156.215L250.5 157.083L250.934 156.866L251.801 157.733L253.536 158.601L256.573 160.336L257.658 160.119L256.573 159.252L252.669 157.083L250.5 155.998L249.632 155.347L248.764 154.914L246.595 153.612H245.945L245.728 153.178L244.643 152.528L244.426 152.744L243.342 151.66L242.257 151.009L241.389 150.792L240.739 150.142L239.871 150.358L239.003 149.274L237.919 148.406L236.4 147.539L235.316 147.756L235.099 146.888L233.581 146.454L232.93 145.803H231.845ZM204.515 147.756L204.298 148.189H204.731L204.515 147.756ZM204.731 148.189L204.298 148.84L205.165 149.274L205.382 149.708H205.816V148.623H205.382L205.165 148.189H204.731ZM225.989 148.406L226.639 148.84V148.406H225.989ZM206.033 148.623V149.708L206.901 149.925L207.117 150.575H207.551L207.334 149.491L206.684 149.274L206.033 148.623ZM212.323 149.274L212.757 149.925H213.191L212.974 149.274H212.323ZM207.768 149.708L207.985 150.792H208.419L209.504 151.877H210.154L209.937 151.443H210.371L210.588 152.311L211.456 153.178L212.974 153.395L213.191 154.046L214.059 154.263V154.697H212.757L212.974 154.046L212.106 153.829H211.673H210.805L211.022 153.178L209.72 152.744L209.287 152.311H208.202V152.744L207.768 152.961L211.89 155.347L215.36 157.083L217.529 158.384L218.831 159.035L220.566 160.119L222.084 160.987L225.555 162.939L228.375 164.675L230.978 165.976L232.713 167.061H233.581L233.798 167.711L239.437 170.748L243.559 173.134L247.463 175.52L249.849 176.822L252.669 178.557L255.922 180.292L260.044 182.678L265.467 185.498L265.9 185.281L264.816 184.847L264.599 183.98L263.731 183.546L263.514 182.678H263.081V181.594L262.213 180.943V180.509L261.562 179.858H260.911L260.695 179.425H260.261L260.044 178.774L259.61 178.123L260.044 177.906L258.308 177.255L258.092 176.822L256.573 176.605L256.139 175.954H255.706L254.838 174.652L254.621 173.785L255.055 173.568L254.404 173.351L253.753 173.568L252.886 172.7L252.018 172.483L252.235 172.05L251.15 171.616L250.283 170.965L248.114 169.88L246.595 169.013L244.209 167.494L241.606 165.759L240.522 165.108L238.786 164.024H238.136V163.59L237.485 163.156L235.967 162.722L235.099 162.289L234.231 162.505V162.939V163.59L232.93 162.939L232.496 162.505L231.412 162.072L230.978 161.638H230.11L229.893 160.77H229.459L228.375 160.553V160.119L226.856 159.469L225.121 158.601L224.687 157.95H223.82V157.517L223.169 157.083H222.301V156.649L220.132 155.781L218.397 154.697H217.529V154.263L215.143 153.395L213.408 152.528L211.239 151.66L210.154 151.009L209.937 150.575L209.07 150.792L208.636 149.925L207.768 149.708ZM214.276 150.142V150.575L214.709 150.358L214.276 150.142ZM229.459 150.142L229.242 150.575L230.11 150.792V150.358L229.459 150.142ZM205.382 150.358L205.599 151.009V150.358H205.382ZM234.231 150.358L234.014 151.443H234.665H235.533V150.792H234.665L234.231 150.358ZM206.033 150.575L206.25 151.009L206.684 150.575H206.033ZM189.982 150.792L190.415 151.66L191.283 152.744L193.669 154.48L194.32 155.781L194.97 155.564L194.537 155.998H193.669V156.432L193.235 156.215V155.781L192.368 155.564H191.717L191.5 154.914L191.066 155.13L190.849 154.914L189.982 154.263L189.114 154.046L188.029 153.829L187.379 154.263L187.162 155.347L191.066 157.733L194.103 159.469L202.345 164.241L204.515 165.542L209.07 168.145L214.276 171.182L218.397 173.351L221.434 175.303L223.82 176.605L228.158 179.208L234.231 182.461L237.919 184.63L242.474 187.233L246.812 189.836L251.584 192.656L255.055 194.608L259.176 196.994L263.081 199.163L265.683 200.465H266.551L266.985 200.248V199.814H267.419L267.853 199.163H268.286V198.73H268.72L268.503 199.38H268.937L269.154 198.296L268.069 197.862V196.777H267.636L267.853 195.91L266.334 195.042L263.948 193.524L261.779 192.222L257.875 190.053L255.489 188.752L251.367 186.583L246.595 183.763L242.474 181.16L240.088 179.858L235.533 177.255L226.206 171.833L224.037 170.531L221 168.796L218.18 167.061L212.106 163.59L208.853 161.638L204.948 159.469L202.562 158.167L197.573 155.564L190.415 150.792H189.982ZM204.948 151.009L205.816 151.877H206.25V151.443L204.948 151.009ZM230.761 151.009L230.978 151.443L231.412 151.226L230.761 151.009ZM206.684 151.443L206.25 152.094L207.334 152.744L207.768 152.528L207.551 151.66L206.684 151.443ZM231.412 151.443L231.845 151.877V151.443H231.412ZM232.713 151.443L233.147 151.877V151.443H232.713ZM234.014 152.094V152.528L234.665 152.961V153.612L235.316 154.046H235.967L236.184 153.395L235.316 152.961L234.448 152.094H234.014ZM233.581 152.744L234.448 153.178L234.231 152.744H233.581ZM237.051 154.046L236.184 154.48L239.654 156.432L242.04 157.95L242.474 157.733L242.257 157.3L242.691 157.083L241.173 156.215L240.956 155.781L239.871 155.564L239.654 155.781L239.22 154.914L237.485 154.046H237.051ZM244.86 155.564V155.998L245.294 155.781L244.86 155.564ZM246.812 157.083L247.029 158.167H247.68L248.114 158.601H248.547L249.415 159.469L250.934 160.119L251.15 160.987L249.849 160.77L249.415 161.204L250.5 161.638H250.934L251.367 162.505L252.669 162.939L253.97 163.807H254.621L255.272 164.024V163.59H256.139V163.156H255.489L255.055 162.289L254.621 161.638L253.97 161.421L253.32 160.77L252.452 160.553L251.801 160.77L251.584 159.686L250.5 159.035L249.415 157.95L248.981 157.733V158.167L248.331 157.95L247.897 157.3L246.812 157.083ZM242.691 157.517L242.474 158.167L243.992 158.818L243.559 157.517H242.691ZM244.426 158.384V158.818L243.992 159.035L244.86 159.252V158.384H244.426ZM228.809 158.818L229.025 159.469L229.676 159.252L228.809 158.818ZM244.86 159.252L245.728 159.686V159.252H244.86ZM299.738 159.252V159.903L300.606 159.469L299.738 159.252ZM299.088 159.469V160.336L299.738 160.119L299.522 159.469H299.088ZM229.893 159.686L230.11 160.553L230.327 159.903L229.893 159.686ZM245.728 159.686L246.595 160.336L248.331 161.421L248.764 161.204L246.595 159.686H245.728ZM297.352 159.903L297.136 160.336L297.569 160.77L297.786 159.903H297.352ZM230.544 160.336L230.761 161.421L231.195 160.987L232.062 161.421V160.553L230.544 160.336ZM257.441 160.336L257.875 160.77V160.336H257.441ZM258.308 160.336L258.742 161.204H259.176L259.393 161.855L260.911 162.505L261.996 163.59L263.514 164.675L264.382 165.108L265.25 165.759H265.683V166.193L266.551 166.844L266.768 167.278L268.286 167.494L268.937 167.061L267.853 165.976L263.514 163.373L260.695 161.638L258.308 160.336ZM296.919 160.336L296.702 160.77H297.136L296.919 160.336ZM294.099 160.987L293.882 161.421L294.966 161.204L294.099 160.987ZM233.147 161.421V162.072L234.231 162.289L234.448 161.855L234.014 161.421H233.147ZM292.797 161.855L293.014 162.289L293.448 161.855H292.797ZM183.257 161.204V162.072L184.559 163.59L186.945 164.891L188.246 165.759L188.463 166.193H188.897L189.114 167.494L188.68 167.711L188.463 167.278L187.812 167.494V166.844L187.162 167.061L186.728 167.278L184.776 167.494L183.04 166.627L183.474 165.759V164.891L181.305 164.241L180.654 163.807L180.221 164.675L180.871 165.325L179.787 165.108L179.57 164.241L178.702 164.024L178.268 163.156L177.834 163.59L178.051 164.891L179.787 166.193L182.173 167.494L184.993 169.23L185.86 169.664H186.728V170.097L192.801 173.568L196.923 175.954L201.912 178.774L212.54 184.847L215.36 186.583L217.746 187.884L221.217 189.836L224.47 191.788L229.893 194.825L231.845 196.127L234.231 197.428L237.702 199.38L242.257 201.983L244.426 203.285L248.331 205.671L250.5 206.972L253.536 208.708L256.139 210.226L259.61 211.744V211.094H260.261L259.827 210.226L259.176 210.66L258.959 210.009L258.092 209.358L257.441 209.792L257.224 208.708L257.007 208.491L256.139 207.406L255.706 206.755L255.272 207.406L254.621 206.538L254.404 205.671H253.97V205.02L253.32 204.803L252.886 205.02L252.669 204.369L252.018 203.935L252.235 203.068L253.536 203.502L253.97 202.851L254.187 203.719L255.055 203.935L255.706 203.285L249.632 200.031L246.595 198.296L243.125 196.344L238.136 193.307L235.316 191.572L231.195 189.402L228.809 188.101L224.47 185.715L220.132 183.112L216.878 180.943L212.106 178.123L207.117 175.303L202.562 172.917L191.5 166.41L187.162 163.807L184.125 161.638L183.691 161.421L183.257 161.204ZM257.441 163.59L257.224 164.458L258.308 164.675V165.108L259.176 165.542H259.827L259.61 164.675H259.176L258.959 164.241L258.308 164.024V164.458L257.875 164.024L257.441 163.59ZM310.801 166.193L311.018 166.627L311.235 166.193H310.801ZM310.15 167.278L309.716 167.711L310.584 167.928L311.018 167.711V167.278H310.15ZM258.959 167.494L259.61 167.928V167.494H258.959ZM333.577 167.494V168.145L334.01 167.928L333.577 167.494ZM308.415 167.928V168.579L308.849 168.796H309.499L309.933 168.362L309.066 167.928H308.415ZM270.889 168.145L271.323 169.013L271.54 168.362L270.889 168.145ZM310.367 168.362V168.796L311.018 168.579L310.367 168.362ZM306.463 168.796L306.897 169.23V168.796H306.463ZM304.511 171.833L304.294 172.266L304.944 172.05L304.511 171.833ZM255.706 174.436L255.922 174.869L256.573 174.652L255.706 174.436ZM258.959 176.605L258.742 177.039L259.393 176.822L258.959 176.605ZM260.478 176.822L259.61 177.039L259.827 177.689H260.911L261.128 177.039L260.478 176.822ZM262.213 177.689L261.779 178.123L262.864 178.557V177.906L262.213 177.689ZM263.081 178.34L263.297 178.774L263.514 178.34H263.081ZM263.514 178.557L263.297 179.208L265.033 179.425L263.948 178.557H263.514ZM264.816 179.641L264.382 179.858V180.292L264.816 180.726L264.599 181.16L265.683 181.594V180.509L265.467 179.858L264.816 179.641ZM263.731 180.292L263.297 181.16L264.382 180.726L264.165 180.292H263.731ZM266.551 180.292L266.117 181.16L267.202 180.726L266.551 180.292ZM277.18 181.16L276.963 181.594L277.614 181.377L277.18 181.16ZM267.202 181.377V181.811L267.853 182.027V181.594L267.202 181.377ZM263.731 182.244L264.599 183.329L264.382 182.461L263.731 182.244ZM266.551 182.678V183.112L267.419 183.329L266.985 182.678H266.551ZM159.18 191.355L158.963 192.005L160.048 192.656L160.482 193.524L161.132 194.174L159.831 193.741L159.397 192.873L158.746 192.222H158.096V193.09H158.529L158.746 193.958L158.963 194.391L160.265 195.042L160.048 195.693L158.313 194.825L157.011 194.608L156.577 195.693L155.276 195.91L155.71 196.127L155.926 196.777L158.096 198.079L163.085 200.465L165.254 201.766L174.364 206.972L178.485 209.358L182.173 211.527L184.559 212.829L188.246 214.998L192.368 217.384L196.055 219.553L201.044 222.373L204.948 224.542L210.588 227.796L213.625 229.748L215.794 231.049L221 234.086L224.904 236.255L228.158 238.207L232.496 240.593L234.665 241.895L239.437 244.715L243.775 247.101L246.161 248.619L250.5 251.005L254.404 253.391L260.261 256.645L261.996 257.512L262.213 257.079H261.562V256.428L262.213 255.994L260.261 254.91L259.61 254.693H260.261L261.128 255.126V254.476L260.695 254.259L261.128 253.391H260.695V252.524L260.261 252.307V251.873H260.911V252.307L261.562 252.957L261.779 253.608L262.647 253.391L262.864 254.259L263.731 254.476L263.514 255.777L263.948 255.343L264.599 255.56L265.683 255.777V255.343L265.25 254.91L265.9 254.476L265.25 254.259V253.608L263.081 252.307H262.864L262.213 251.656L257.875 248.836L255.055 247.101L253.103 246.016L248.981 243.63L245.511 241.895L242.474 240.16L238.353 237.774L234.231 235.171L230.978 233.218L227.29 231.266L222.735 228.663L219.265 226.711L214.709 224.108L206.033 218.902L200.827 215.866L197.356 214.13L192.801 211.527L188.029 208.708L184.559 206.538L181.739 204.803L179.136 203.502L176.533 201.983L173.062 200.248L167.206 196.994L164.386 195.042L161.566 192.656L159.397 191.355H159.18ZM289.544 192.873L288.459 193.09V193.524L289.761 193.307L289.544 192.873ZM288.242 193.524L288.459 194.608L288.676 193.741L288.242 193.524ZM286.507 194.608L286.724 195.042L286.941 194.608H286.507ZM289.761 194.825L289.977 195.259L290.194 194.825H289.761ZM288.893 195.259L288.676 195.693H289.11L288.893 195.259ZM312.102 196.344L311.669 196.777L312.536 196.994L313.187 196.344H312.102ZM311.235 196.994L309.499 197.645L309.283 198.513L310.584 198.079L312.102 197.211L311.235 196.994ZM282.819 198.73L282.603 199.163L283.47 198.73H282.819ZM269.371 198.947V200.031L270.022 199.814L269.805 198.947H269.371ZM267.636 199.814V200.248L268.069 200.031L267.636 199.814ZM268.937 199.814V200.248L269.371 200.031L268.937 199.814ZM270.239 199.814L270.672 200.682V200.031L270.239 199.814ZM271.106 200.248V200.899H271.54L271.323 200.248H271.106ZM266.551 200.682L267.419 201.116L267.202 200.682H266.551ZM150.721 202.2V202.851H151.588L152.022 203.719L152.673 204.369L153.107 205.237L151.588 205.671H150.721V204.803L149.853 204.586L148.768 204.803V205.237L148.335 205.454L148.118 205.671L147.467 205.888L147.684 206.538L149.853 207.84L152.456 209.141L157.662 212.178L159.831 213.48L162.868 214.998L166.121 216.95L170.893 219.77L174.147 221.722L176.533 223.024L179.787 224.759L183.257 226.928L185.86 228.23L189.765 230.616L193.886 233.002L197.14 234.954L202.779 238.207L208.202 241.461L214.276 244.715L218.614 247.318L222.084 249.487L227.073 252.307L231.628 254.91L236.4 257.512L241.389 260.549L245.511 263.152L250.283 265.972L253.753 267.924L257.007 269.876L260.044 271.395L261.779 272.479H262.213L261.996 271.612L261.128 270.961L260.911 270.31L259.827 270.527L260.478 269.876L259.61 269.009L259.176 268.141L259.61 267.924V268.792L260.261 269.009V268.575L260.911 268.792V268.358H260.478L260.261 267.49L258.308 267.273L257.875 266.189L257.441 265.321H257.007L257.224 264.887L258.742 265.321L259.61 264.887L258.525 264.02L252.669 260.549L247.029 257.512L243.125 255.343L239.437 253.174L236.184 251.222L231.628 248.619L227.724 246.233L223.603 243.847L219.048 241.461L215.794 239.509L212.106 237.34L209.287 235.604L206.901 234.086L203.43 232.351L198.658 229.748L194.97 227.579L190.632 224.976L185.86 222.156L181.305 219.553L177.184 217.167L172.629 214.564L168.507 212.178L164.603 210.009L155.71 204.803L152.456 202.851L150.721 202.2ZM256.139 203.719L255.706 204.369L256.79 204.586L256.139 203.719ZM296.051 203.935L294.533 204.369L294.966 204.803H296.485L296.268 203.935H296.051ZM257.658 204.586V205.237L258.525 204.803L257.658 204.586ZM294.316 204.803V205.888L294.75 206.105V206.972H295.183L295.4 205.888L294.966 205.671L294.533 204.803H294.316ZM150.938 205.02V205.454L151.371 205.237L150.938 205.02ZM258.525 205.02V205.454L259.176 205.237L258.525 205.02ZM293.231 205.237L294.099 205.671V205.237H293.231ZM259.176 205.454V205.888L260.478 206.538V205.888L259.176 205.454ZM296.485 205.671L295.617 206.538L296.702 206.105L297.136 205.671H296.485ZM292.58 205.888L293.014 206.972L293.882 206.755L294.099 206.321L292.58 205.888ZM294.099 206.105L294.533 206.538L294.75 206.105H294.099ZM291.062 206.538L290.845 207.189H291.279L291.062 206.538ZM294.099 206.972V207.406L294.533 207.189L294.099 206.972ZM262.647 207.406V208.057L263.081 207.623L262.647 207.406ZM263.731 208.057V208.491L264.165 208.274L263.731 208.057ZM281.518 208.491L281.301 208.924L281.518 209.358L281.952 209.141V208.491H281.518ZM279.566 209.792L279.349 210.226L280 210.443L279.783 209.792H279.566ZM288.893 210.009L288.676 210.443L289.327 210.226L288.893 210.009ZM278.915 210.226L278.698 210.66L279.349 210.443L278.915 210.226ZM260.478 210.877L260.911 211.31L261.345 210.877H260.478ZM260.261 211.094L259.827 211.961L260.478 212.178L260.695 211.744L260.261 211.094ZM261.345 211.31L261.779 211.744V211.31H261.345ZM141.827 211.744L142.261 213.48L144.213 214.998L145.732 216.082H145.081L142.478 214.564H141.827V216.082L140.96 215.866L140.526 215.215L139.658 215.432L139.875 215.866L140.526 216.082L140.96 217.167L146.165 220.421L150.938 223.241L155.71 225.843L158.096 227.362L160.482 228.663L166.338 231.917L170.243 234.303L173.279 235.821L176.316 237.774L178.702 239.075L181.956 240.81L190.849 246.016L193.669 247.751L199.309 251.005L202.996 253.174L206.25 254.91L209.72 256.862L213.625 259.031L221 263.369L225.772 266.189L230.327 268.792L233.798 270.961L237.702 273.13L243.775 276.601L247.68 278.77L251.367 280.939L254.838 282.891L261.345 286.795L264.165 288.531L266.117 289.615L266.551 289.398V288.965H267.419V287.663L267.853 287.446L268.069 288.314L268.937 286.795L269.154 286.362L269.805 286.145L269.154 284.843L265.9 283.325L263.297 281.807L258.959 279.204L253.97 276.167L249.415 273.564L245.511 271.395L240.739 268.792L236.617 266.406L233.798 264.671L229.676 262.068L225.772 259.899L222.084 257.729L217.529 255.126L213.625 252.957L207.334 249.27L204.298 247.318L198.875 244.281L193.669 241.461L189.114 238.858L184.776 236.255L180.221 233.435L176.099 231.266L172.629 229.314L166.555 225.843L161.783 223.024L157.228 220.421L152.239 217.601L146.382 214.347L144.864 213.263L142.912 212.178L141.827 211.744ZM266.551 211.744L266.985 211.961L266.768 212.612L267.853 213.696L269.371 214.998H270.022V215.432H270.672L270.456 214.564H270.022L269.805 213.696L267.202 211.744H266.551ZM261.779 211.961V212.395L261.345 212.829L262.647 213.48L262.213 212.178L261.779 211.961ZM268.503 211.961V212.395L268.937 212.178L268.503 211.961ZM262.864 213.263L263.081 213.913L263.731 214.13L263.297 213.263H262.864ZM140.743 214.564L141.177 214.998V214.564H140.743ZM140.092 215.866L139.875 216.299H140.309L140.092 215.866ZM271.54 215.649L270.889 216.299L271.54 216.733L272.191 216.299L271.54 215.649ZM271.323 218.252L271.757 218.685V218.252H271.323ZM135.537 222.807L135.103 223.024V223.457L135.971 223.891L137.055 224.976L136.838 226.06L137.923 225.627L137.706 226.494L137.055 226.928H137.489V227.362H136.188L135.971 227.579L135.754 227.145L136.188 226.711L135.103 226.06L134.235 225.627L135.103 226.928L133.802 226.494L133.151 227.362V227.796L137.055 229.965L140.96 232.351L143.129 233.652L147.25 236.038L152.456 238.858L156.143 241.027L161.349 243.847L163.518 245.149L168.29 247.968L172.846 250.571L178.485 253.825L181.956 255.777L185.643 257.946L189.765 260.332L194.537 263.152L197.573 264.887L201.261 267.057L205.165 269.226L209.72 271.829L213.191 273.998L216.445 275.95L220.566 278.336L226.423 281.59L231.412 284.193L235.316 286.579L239.654 289.182L243.775 291.568L246.595 293.303L251.584 296.123L255.272 298.292L259.61 300.895L260.695 301.329L260.911 300.027L260.261 299.81L260.044 298.726L259.393 299.159L258.742 298.943L258.525 298.292L257.875 298.075V297.207L257.224 296.773L257.658 296.556V296.123L256.573 295.689L257.007 294.387L257.224 294.17L257.441 294.821L259.827 296.34L260.044 295.906L260.261 296.556L260.911 296.34V296.773L261.345 296.556L261.128 296.123L261.562 295.906L260.695 295.472L257.441 293.303L249.849 288.748L244.426 285.711L240.088 283.325L237.919 282.023L234.014 279.637L228.592 276.384L219.265 270.961L213.191 267.49L209.72 265.538L206.901 263.803L202.562 261.2L197.356 258.163L193.018 255.994L190.198 254.259L186.294 252.09L182.173 249.487L178.268 247.318L173.713 244.715L170.243 242.763L165.904 240.16L157.662 235.388L153.974 233.218L150.287 231.266L146.816 229.314L143.563 227.579L141.393 226.277L137.706 224.108L135.971 222.807H135.537ZM267.419 225.41V226.06L268.069 225.843L267.419 225.41ZM268.937 226.277V226.711L269.371 226.494L268.937 226.277ZM136.404 226.494L136.621 226.928L136.838 226.494H136.404ZM269.371 226.711L270.239 227.145L270.022 226.711H269.371ZM270.239 227.145L270.456 227.579L270.889 227.362L270.239 227.145ZM264.599 227.796L265.25 228.446V227.796H264.599ZM266.551 228.23L266.985 229.097L267.419 228.88L267.202 228.446L266.551 228.23ZM264.599 228.446V229.097L264.165 229.314L265.467 229.965L265.9 229.748L265.033 228.88L264.599 228.446ZM352.665 229.314L353.099 229.748V229.314H352.665ZM265.9 229.965L266.551 230.399V229.965H265.9ZM352.231 232.568L352.014 233.002H352.448L352.231 232.568ZM351.146 233.002L351.363 233.435L352.014 233.218L351.146 233.002ZM125.559 233.652L125.125 234.52L125.993 234.737L126.427 233.869L125.559 233.652ZM262.864 237.34L262.647 238.424L263.948 238.858V239.292L263.297 239.726L263.948 239.943L264.382 239.726L263.297 241.027L265.25 240.593L265.9 239.509L265.033 239.726V239.075L264.165 238.207L263.081 237.34H262.864ZM257.224 237.774V238.207H257.658V237.774H257.224ZM257.875 237.991L258.308 238.424V237.991H257.875ZM287.158 239.292L287.375 239.726L287.591 239.292H287.158ZM262.43 239.726V240.16L262.864 239.943L262.43 239.726ZM286.724 239.726L287.158 240.16V239.726H286.724ZM285.205 239.943L284.989 240.377L285.639 240.16L285.205 239.943ZM285.856 239.943L286.073 241.244L286.724 240.81L286.507 240.16L285.856 239.943ZM261.996 240.377V240.81L262.43 240.593L261.996 240.377ZM284.989 240.593L285.205 241.027L285.639 240.593H284.989ZM285.422 241.244L285.205 241.678L286.073 241.244H285.422ZM284.121 241.678V242.329L284.772 242.112V241.678H284.121ZM283.687 241.895L283.253 242.979L284.121 242.329L283.687 241.895ZM264.599 242.112V242.546L265.467 242.979L265.25 242.329L264.599 242.112ZM267.853 242.546L267.636 243.63H268.069V242.546H267.853ZM268.503 243.196V243.847L269.154 244.064L268.937 243.196H268.503ZM280 243.847L280.216 244.281L280.433 243.847H280ZM280.65 244.064L279.783 244.498L280 244.932L281.084 244.281L280.65 244.064ZM279.349 244.498L278.698 245.149L278.915 245.582L279.783 244.932L279.349 244.498ZM277.614 245.799L277.18 246.233L278.264 246.016L277.614 245.799ZM276.746 246.233L276.529 246.667L277.18 246.45L276.746 246.233ZM268.503 246.45L268.937 246.884L269.588 246.667L268.503 246.45ZM260.695 252.524L261.128 252.957V252.524H260.695ZM262.43 254.476L262.647 254.91L262.864 254.476H262.43ZM284.338 254.693V255.126H284.989L285.205 255.56L285.639 255.343V254.91L284.338 254.693ZM265.9 255.777V256.645L266.768 256.211L265.9 255.777ZM262.213 256.428V257.079H262.647V256.428H262.213ZM266.768 256.428V256.862H266.334V257.512L266.768 257.729L266.985 258.814L266.117 258.163H265.033H264.382V258.597L263.948 258.814L267.853 260.983L268.503 260.332L270.456 260.766H271.106V261.2L271.54 260.983L270.456 258.814L268.286 257.079L267.419 256.428H266.768ZM283.687 256.862L283.47 257.296L284.121 257.079L283.687 256.862ZM264.816 257.079L265.25 257.512V257.079H264.816ZM262.864 257.296V257.729L262.43 257.946L263.081 258.163L263.297 257.296H262.864ZM263.948 257.296L264.165 257.946L264.382 257.296H263.948ZM263.514 257.512L263.081 258.38L263.948 258.597L263.731 257.512H263.514ZM281.952 257.729V258.163L282.386 257.946L281.952 257.729ZM278.481 259.899L278.264 260.332L278.915 260.115L278.481 259.899ZM277.397 260.332L277.614 260.766L278.264 260.332H277.397ZM269.154 260.549V260.983L269.588 260.766L269.154 260.549ZM259.61 264.887V265.321L260.261 265.104L259.61 264.887ZM260.478 265.321L260.044 265.538V265.972L261.779 266.84H262.647L261.562 265.972L260.478 265.321ZM263.081 267.057L262.213 267.707H262.647L262.864 268.141V267.707L263.514 267.49L263.081 267.057ZM274.36 267.273V268.575H274.577V267.273H274.36ZM263.731 267.49L263.297 267.924H263.731V268.575L264.382 268.792L264.599 267.924L263.731 267.49ZM279.783 270.961V271.395L280.433 271.178L279.783 270.961ZM277.18 271.178L276.529 271.829L277.18 272.262L277.614 271.178H277.18ZM270.889 271.829L270.672 272.262L271.323 272.046L270.889 271.829ZM270.889 277.251L271.106 277.685H271.54V277.251H270.889ZM323.165 278.553L322.948 278.987L323.816 278.553H323.165ZM322.297 278.987V279.421L322.948 279.204L322.297 278.987ZM273.709 283.759L273.492 285.494L274.36 285.928V285.06L274.794 284.843L274.36 283.976L273.709 283.759ZM269.588 285.277V285.711L270.239 285.494L269.588 285.277ZM270.456 285.711V286.795H271.54L271.106 285.928L270.456 285.711ZM273.492 285.711V286.795L273.926 287.012L273.709 285.711H273.492ZM270.022 288.314L270.456 289.182L270.889 288.748L270.022 288.314ZM271.106 288.748L271.54 289.615L271.757 289.182L271.54 288.748H271.106ZM270.672 289.182L270.889 290.266L271.323 289.832L271.106 289.182H270.672ZM269.371 289.832L269.588 290.266L269.805 289.832H269.371ZM271.757 290.266L271.54 290.7H271.974L271.757 290.266ZM293.231 295.906L292.147 296.556L292.58 296.773L293.665 296.123L293.231 295.906ZM262.213 296.556L261.996 296.99L262.647 297.207L263.081 296.773L262.213 296.556ZM291.496 296.556V297.207L291.93 296.99L291.496 296.556ZM273.058 296.773L272.842 298.509H273.275V299.376H272.625L271.974 300.461V300.895H271.54L271.757 301.979L272.842 302.847L272.625 308.27L272.842 312.174L272.625 313.909H273.058L272.842 314.126L271.106 314.777L270.889 315.645L271.757 316.295L272.842 316.512V322.803L273.926 322.586L274.36 323.02L274.577 320.2L274.794 316.729L275.444 314.56L274.794 314.126L274.577 312.825L274.36 311.74H273.926L274.143 310.439L273.926 309.788L273.492 308.053L274.143 307.836L274.36 306.534L274.794 306.317H274.36L274.794 301.112H275.228V300.678L274.794 300.244L274.143 297.424L273.058 296.773ZM288.459 296.99L288.025 297.424H288.676L288.459 296.99ZM280.433 298.292L279.783 298.943H280.867V298.292H280.433ZM288.025 298.943L287.808 299.376L288.459 299.159L288.025 298.943ZM260.695 301.329L260.911 301.762H261.345V301.329H260.695ZM262.213 302.196L262.43 302.63L262.864 302.413L262.213 302.196ZM267.419 302.63V303.064L267.853 302.847L267.419 302.63ZM263.731 302.63L263.081 303.064L263.948 303.281L263.731 302.63ZM270.022 303.281V303.715L268.503 303.498L268.286 303.931L268.503 304.365H267.202L267.853 305.016L269.588 305.667L270.239 305.45L270.456 303.931L270.022 303.281ZM266.551 304.799L266.768 305.233L267.202 305.016L266.551 304.799ZM299.522 304.799L299.305 305.233H299.738L299.522 304.799ZM268.069 305.667L268.72 306.101V305.667H268.069ZM297.569 308.053L297.352 308.487L298.003 308.27L297.569 308.053ZM258.092 308.27L257.875 308.704L258.742 308.487L258.092 308.27ZM258.742 308.704V309.354L259.61 309.571L260.044 309.354L259.176 308.704H258.742ZM260.044 309.571L260.261 310.222L261.562 310.439L260.911 309.788L260.044 309.571ZM278.047 313.476V313.909L277.397 314.56L278.481 314.126V313.476H278.047ZM276.095 315.645L275.878 316.078L276.529 315.862L276.095 315.645ZM273.709 324.538V324.972L274.143 324.755L273.709 324.538ZM271.323 328.876V329.093H273.926V328.876H271.323Z" fill="#FEFCFC"/>
<path d="M253.537 24.5498L254.405 24.9836L256.14 28.888L257.658 33.4432L260.695 43.4211L261.346 45.3733V46.6747L261.129 47.1086H257.658L250.717 47.7593L245.078 48.6269L225.772 51.4468L212.107 54.0497L206.901 55.1343L202.129 56.6526L201.261 57.5203H203.648L210.155 56.6526L221.868 54.4835L232.714 52.5313L241.607 51.013L253.32 49.2777L259.177 48.6269L260.695 48.1931H261.997L262.647 49.2777V49.9284H263.081L263.515 51.4468L263.298 53.399H263.732L263.949 55.1343L264.383 56.4357V58.6048L264.816 60.1232L265.033 62.2923L266.335 69.0166L266.769 69.6673V71.1857L266.986 71.6195L266.769 72.4871H267.419L267.202 74.8732L267.853 75.0901V77.2592L269.805 88.7555L270.239 90.9246H270.456L270.239 93.0937L270.89 93.3106V96.3474L271.107 97.215L271.324 99.3841L271.541 100.252V101.987L270.239 101.77L269.155 101.553L268.504 100.902L267.636 100.686V100.252L265.684 99.601L264.816 98.7334L263.081 97.8657V97.4319L261.997 96.9981L256.791 93.9613L251.802 91.1415L249.199 89.84L244.644 87.2371L238.57 83.5496L229.243 78.1268L226.857 76.8254L221 73.5717L216.228 70.7519L206.25 65.1122L201.478 62.2923L199.96 61.4247L198.442 59.6894L198.875 58.6048L200.394 56.4357L201.695 54.7004L203.214 53.1821L206.901 50.5791L212.324 47.5424L216.879 44.9394L221.868 42.1196L225.122 40.1674L228.809 37.9983L232.063 36.0461L237.052 33.2262L248.765 26.7189L252.236 24.9836L253.537 24.5498Z" fill="#FEFCFC"/>
<path d="M264.816 48.8437H266.334L270.673 50.1452L278.264 52.5312L286.507 55.351L295.183 58.1709L303.86 60.5569L311.452 62.5091L317.742 64.2444L320.779 65.3289L326.636 67.7149L329.022 68.7995L330.54 69.8841L330.323 70.7517L326.852 72.7039L322.297 75.3068L319.477 77.0421L315.573 79.2112L311.018 81.8142L307.547 83.7664L304.728 85.5017L300.823 87.6708L295.617 90.7075L291.062 93.3104L287.808 95.2626L277.831 100.902L275.228 102.204L274.143 101.987L273.275 101.119L272.842 100.252L272.408 98.7332V97.4318H272.842L271.106 84.2002L270.456 80.2958L270.239 79.862L269.805 75.0899H269.371V73.5715L268.503 69.0164V68.1488L268.07 67.9319L268.286 66.8473L267.853 66.6304L268.07 65.7627L267.636 65.9797V68.5826L267.853 69.4502V70.101H267.419L268.286 70.9686V72.2701L267.419 71.8363L266.985 70.7517V69.4502V69.0164V67.9319L266.551 66.4135L266.985 66.1966V64.8951H266.334L266.117 63.1598H266.551L266.985 64.0275H267.419L267.202 62.9429V61.2076H266.768V58.8216H266.334L266.117 56.4356L264.816 49.4944V48.8437ZM267.636 64.4613L267.419 65.5458L267.853 65.3289L267.636 64.4613ZM272.842 97.6487V98.7332H273.059V97.6487H272.842Z" fill="#FEFCFC"/>
<path d="M147.251 427.137L148.552 427.354L152.023 429.089L161.133 434.078L165.688 436.898L175.449 442.321L178.703 444.273L184.993 447.96L188.681 449.912L191.067 450.997L190.85 451.648L186.946 454.034L181.306 457.287L178.052 459.24L168.291 464.662L164.604 466.832L160.265 469.434L156.144 472.037L151.806 474.64L147.685 476.809L146.817 477.026L146.6 475.074L146.383 434.512L146.166 432.56L146.383 431.258L146.166 429.74V428.655H146.817L147.251 427.137Z" fill="#FEFCFC"/>
<path d="M135.32 275.299L137.706 275.95L138.574 276.601L143.346 279.204L145.949 280.722L149.419 282.457L152.239 284.193L153.757 285.06L155.71 286.362L155.927 286.795L154.625 286.579L152.89 285.494L150.721 284.193L148.985 283.325L148.768 283.759L148.335 283.325L148.552 283.108L144.213 280.722L144.43 281.59L150.504 284.843L155.059 287.446L158.963 289.615L166.772 294.17L169.158 295.906V296.556H168.724V298.075L167.64 298.942L163.085 301.329L158.746 303.931L152.673 307.619L147.684 310.439L142.478 313.476L136.621 316.729L133.802 318.031L133.585 285.928V279.421L134.019 277.251L134.235 277.034L136.188 277.251L139.658 278.987H140.309H140.96L137.272 276.818L135.32 275.733V275.299ZM143.129 280.071L143.346 280.505L143.78 280.288L143.129 280.071Z" fill="#FEFCFC"/>
<path d="M341.82 193.74L342.688 194.174L343.772 196.343L344.857 200.465V201.766L341.386 203.718L337.265 206.321L332.059 209.358L329.239 211.093L314.055 219.77L310.151 221.939L305.813 224.542L300.607 227.579L295.835 230.182L291.93 232.351L286.725 235.387L283.471 237.34L281.085 238.858L277.831 241.027L276.964 241.895L276.53 242.545L275.662 243.413L275.011 245.148L274.144 244.931L274.361 243.196L274.144 236.906L273.927 235.604L274.577 233.001L275.662 232.351L275.879 231.917L279.35 230.182H278.265L278.048 230.615L277.397 230.182V230.615L276.313 230.832L276.747 229.965L280.434 228.229L281.736 227.796L282.169 227.362L283.471 226.928L285.206 226.06L284.989 225.626H286.725L287.592 225.193L288.677 224.976L292.581 222.807L297.136 220.204L299.956 218.468L305.813 214.998L310.368 212.395L317.743 208.49L323.382 205.237L326.853 203.285L331.408 200.465L335.096 198.296L338.566 196.343L341.386 194.174L341.82 193.74ZM285.64 226.277L284.989 226.928L286.074 226.494L285.64 226.277ZM284.338 226.928L284.555 227.362L284.989 226.928H284.338ZM283.688 227.362L283.471 227.796L284.122 227.579L283.688 227.362ZM282.82 227.796L283.037 228.229L283.471 227.796H282.82ZM281.952 228.012L281.736 228.663H282.169L281.952 228.012Z" fill="#FEFCFC"/>
<path d="M257.224 25.8516L258.309 26.2854L262.647 28.6714L266.334 30.8405L270.022 32.7927L273.492 34.7449L279.566 38.2155L284.121 41.0353L288.025 43.4214L291.713 45.5905L300.823 50.7963L303.643 52.5316L306.246 54.05L308.632 55.3515L312.536 57.5206L316.007 59.4728L319.044 61.6419L319.911 62.7264V63.1603L318.393 62.9433L311.235 60.9911L298.22 57.0868L290.412 54.4838L281.518 51.4471L275.878 49.7118L268.287 47.7596L265.033 46.8919L263.731 46.2412L263.298 45.8074L262.864 44.7228V44.0721L262.43 43.8552L262.213 42.1199L260.695 36.6971L258.742 30.8405L257.658 27.153L257.224 25.8516Z" fill="#FEFCFC"/>
<path d="M134.236 332.13L135.32 332.347L138.357 334.299L140.96 335.817L143.997 337.336L148.769 340.155L152.89 342.108L153.975 342.758L153.541 343.626L151.372 345.144L147.684 347.097L143.997 349.266L138.357 352.519L135.537 354.255L134.67 354.689H133.802V335.383L134.019 332.347L134.236 332.13Z" fill="#FEFCFC"/>
<path d="M129.247 361.413L131.416 362.063L134.669 364.016L138.357 366.402L141.394 368.137L143.563 369.438L149.202 372.692L155.059 376.163L158.096 378.115L160.482 379.416L166.772 382.887L171.978 385.924L176.533 388.527L181.088 391.346L187.379 395.034L193.018 398.288L199.092 401.758L207.985 406.964L213.625 410.218L219.482 413.688L224.904 416.942L229.459 419.545L234.665 422.582L240.088 425.618L245.511 428.872L248.331 430.607L251.801 432.776L252.886 433.644V434.078L251.367 433.644L248.114 431.692L245.728 430.39L241.606 428.004L239.22 426.486L237.268 425.401L232.713 422.799L227.073 419.762L222.301 417.159L218.18 414.773L215.36 413.038L211.239 410.652L207.335 408.482L205.165 407.181L202.129 405.229L199.526 403.927L196.706 402.192L192.585 399.806L189.114 397.854L179.136 392.214L173.713 389.177L171.761 387.876L169.375 386.574L158.746 380.501L152.89 377.247L150.721 375.946L148.552 374.861V374.427L147.033 373.994V373.56L145.515 373.126L143.997 371.824L140.309 369.655L137.055 367.486L132.934 364.883L130.765 363.148L129.247 361.847V361.413Z" fill="#FEFCFC"/>
<path d="M132.934 324.754L134.452 326.056L137.272 328.225L141.394 330.828L144.647 332.78L147.467 334.298L149.636 335.6L153.107 337.335L156.794 339.504L165.254 345.144L168.724 347.096L173.28 349.699L176.75 351.651L180.654 353.82L191.283 360.111L196.489 363.148L202.129 366.401L207.985 369.872L213.191 372.909L217.963 375.728L224.037 379.199L232.713 384.405L241.823 389.611L247.463 392.864L251.584 395.467L252.669 396.335L253.103 396.552V396.986L252.018 396.769L246.379 393.515L240.522 390.262L235.316 387.225L230.761 384.622L225.989 381.802L221.868 379.416L217.312 376.813L212.107 373.776L207.551 371.173L203.43 368.787L198.441 365.967L195.404 364.232L191.5 362.063L189.114 360.545L186.728 359.243L182.607 356.857L175.015 352.519L172.412 351.218L167.857 348.615L162 345.361L156.794 342.541L152.239 339.938L148.985 337.769L143.78 334.515L138.791 331.479L135.971 329.743L133.802 328.008L132.717 326.924L132.5 325.405L132.934 324.754Z" fill="#FEFCFC"/>
<path d="M298.871 95.2631L299.739 95.48V96.1307L299.305 96.3476L300.172 97.2153L302.558 98.5167L303.209 98.2998L303.426 99.1675L306.246 101.337V101.987H305.812L305.378 102.855L303.643 104.156L298.871 107.193L295.834 109.145L292.797 110.881L291.713 111.531L291.279 111.965L289.761 112.399V112.833L288.459 113.05L287.375 113.484L286.941 111.965L286.724 103.072L286.507 102.204L288.242 100.903L292.581 98.2998L296.051 96.3476L297.57 95.6969L298.871 95.2631Z" fill="#FEFCFC"/>
<path d="M173.063 421.28L174.798 421.497L177.401 422.581L181.306 424.75L185.861 427.57L187.813 429.522L190.633 430.607L191.934 431.692V431.908L190.416 431.692L189.548 431.041L188.03 430.824H187.596L186.945 431.041L185.427 432.993H184.993L184.776 433.644L183.041 434.945L182.824 435.596L181.523 435.813V434.945L180.438 433.861L179.354 433.427L177.835 432.125L175.666 431.258L174.581 430.173V429.739H174.148V429.305H173.714V428.872L172.846 428.438L172.629 427.787L172.412 423.449L172.846 421.497L173.063 421.28Z" fill="#FEFCFC"/>
<path d="M308.415 90.0568L308.849 90.2737V97.6487L307.982 99.6009L306.897 99.384L304.294 97.8656L301.474 95.4796H301.04V95.0457L300.39 95.2627L300.607 94.395L301.691 93.7443L302.559 92.6597L304.728 91.3583L308.415 90.0568Z" fill="#FEFCFC"/>
<path d="M176.317 290.699L178.486 291.567L179.353 292.218L180.872 292.869L181.956 293.085L182.173 293.736L183.692 294.821L184.993 295.472L188.464 297.641L190.633 298.942L195.405 301.545L197.14 302.63L196.923 303.063L195.839 302.63L193.453 301.328L188.247 298.291L186.511 297.424H185.861L185.427 296.556L183.041 295.255L181.956 294.387L178.703 292.652L176.317 291.133V290.699Z" fill="#FEFCFC"/>
<path d="M127.294 262.935L128.162 263.152L137.272 267.707L138.14 268.358L138.574 268.141L139.875 269.225L140.309 269.876L140.96 270.093V270.527L142.261 270.961L143.129 271.611L143.78 272.262L142.695 272.045L140.526 270.961V270.527L139.225 270.093L136.839 268.575L132.934 266.405L128.596 264.019L127.294 263.152V262.935Z" fill="#FEFCFC"/>
<path d="M211.24 282.674L212.541 282.891L214.277 283.975L217.53 285.494L217.747 285.928L219.049 286.361L220.35 287.229L221.001 287.88L221.435 288.097L220.784 288.747L218.832 287.88L217.747 287.446L216.663 286.578L215.795 285.928L214.927 285.494L214.06 284.626H213.626V284.192L212.324 283.975V283.542H211.89V283.108H211.457L211.24 283.542V282.674Z" fill="#FEFCFC"/>
<path d="M134.886 330.828L135.971 331.045L138.574 332.563L142.912 335.166L145.298 336.685L147.033 337.769L146.6 337.986L140.96 334.949L137.056 332.563L134.886 331.262V330.828Z" fill="#FEFCFC"/>
<path d="M254.622 329.093L255.706 329.309L258.743 331.045L260.912 332.346L262.648 333.431L262.214 333.865L260.262 332.997L259.828 333.214L259.394 332.997V332.346L256.574 330.611L254.622 329.309V329.093Z" fill="#FEFCFC"/>
<path d="M158.963 280.505L160.699 281.372V281.806L162 282.24L163.085 282.891L164.386 283.542V283.975L165.471 284.409L166.338 284.843V285.277L165.254 285.06L163.952 284.192L163.302 283.975V283.542L162.217 283.325H161.566L161.132 282.457L158.746 281.156L158.53 280.722L158.963 280.505Z" fill="#FEFCFC"/>
<path d="M241.824 285.928L243.559 286.578V287.012L244.644 287.229L245.728 287.88L246.162 288.314V288.964L245.077 288.747L242.691 287.446L241.824 286.795V285.928Z" fill="#FEFCFC"/>
<path d="M235.967 296.99L236.835 297.207L238.353 297.858L239.872 298.726V299.159L241.173 299.376V299.81L242.475 300.244L242.692 300.678L240.739 300.027L238.136 298.726H237.703V298.292L235.967 297.858V296.99Z" fill="#FEFCFC"/>
<path d="M150.938 276.167L151.589 276.384V276.817L153.107 277.034L153.975 277.468V277.902L154.843 278.119L157.662 279.637L157.879 280.288L156.578 279.854L152.89 277.902L150.721 276.601L150.938 276.167Z" fill="#FEFCFC"/>
<path d="M294.099 172.917L294.533 173.134L292.364 174.436L292.147 174.869L288.677 176.605H288.026V176.171L289.11 175.737L289.327 175.303L290.629 174.653L291.713 174.436L291.93 173.785L294.099 172.917Z" fill="#FEFCFC"/>
<path d="M259.177 34.0942L259.827 34.3111L260.044 36.6971H260.478L260.912 39.0832L261.563 40.1677L261.346 41.2523L260.695 40.6015L259.61 36.9141L259.177 35.1788V34.0942Z" fill="#FEFCFC"/>
<path d="M211.673 311.09L214.059 312.391L217.313 314.343L217.529 314.994L216.445 314.56L212.107 311.957L211.673 311.09Z" fill="#FEFCFC"/>
<path d="M205.6 307.619L207.769 308.703L208.853 309.571V309.137H209.287L209.504 309.788L210.589 310.439V310.872H211.239L211.022 311.306L208.419 310.005L207.335 308.92L206.467 308.703L205.6 307.619Z" fill="#FEFCFC"/>
<path d="M221.217 92.8768L222.519 93.0937L225.122 94.829L226.206 95.6966L225.989 96.1305L223.82 94.829L221.434 93.3106L221.217 92.8768Z" fill="#FEFCFC"/>
<path d="M198.225 275.95H199.309L200.611 276.817L200.394 277.685H199.743L198.659 277.034L198.225 276.6V275.95Z" fill="#FEFCFC"/>
<path d="M160.699 195.042L161.783 195.476L163.735 196.127L164.603 196.56L163.735 196.994L162 196.56L160.916 195.91L160.699 195.042Z" fill="#FEFCFC"/>
<path d="M262.214 326.056L264.166 326.924L266.118 328.008L266.769 328.876L265.901 329.093L265.684 328.442L263.732 327.357L262.214 326.49V326.056Z" fill="#FEFCFC"/>
<path d="M222.736 277.034H224.037L224.471 278.335L222.736 278.118L222.085 277.902L222.302 277.251L222.736 277.034Z" fill="#FEFCFC"/>
<path d="M217.747 314.56L220.133 315.861L221 316.946L219.916 316.512L218.614 315.861L217.53 314.994L217.747 314.56Z" fill="#FEFCFC"/>
<path d="M279.566 342.975H280V343.409L276.747 344.711L276.096 345.145H275.445V344.711L278.482 343.409L279.566 342.975Z" fill="#FEFCFC"/>
<path d="M235.967 325.189L237.052 325.623L239.221 326.924V327.358L238.136 326.924L236.835 326.273L235.967 325.623V325.189Z" fill="#FEFCFC"/>
<path d="M150.07 426.703L151.372 426.919L153.324 428.221L153.107 428.655L150.07 426.919V426.703Z" fill="#FEFCFC"/>
<path d="M156.36 271.611L157.445 272.045V272.479L158.746 272.696L159.18 273.563L157.879 273.13L157.011 272.696L156.36 272.045V271.611Z" fill="#FEFCFC"/>
<path d="M147.901 216.733L148.986 217.167L149.203 218.035L148.118 217.818L147.034 217.167L147.901 216.733Z" fill="#FEFCFC"/>
<path d="M224.687 279.203L225.989 279.42L227.724 280.721L227.29 281.155L226.856 280.938V280.505L225.772 280.071L224.687 279.42V279.203Z" fill="#FEFCFC"/>
<path d="M177.401 432.993L178.486 433.21V433.644L179.353 433.861L179.787 434.295L179.136 434.512L177.401 433.427V432.993Z" fill="#FEFCFC"/>
<path d="M257.441 323.236L258.309 323.67L260.695 325.188L260.912 325.622L259.827 325.188L257.875 324.104L257.441 323.236Z" fill="#FEFCFC"/>
<path d="M247.897 331.696L248.548 331.913L249.633 333.214H250.717V333.648L249.85 333.865L248.548 332.998L247.897 331.696Z" fill="#FEFCFC"/>
<path d="M214.71 287.879L216.011 288.313V288.747L217.096 288.964L217.313 289.398L215.794 289.181V288.747L214.927 288.53L214.71 287.879Z" fill="#FEFCFC"/>
<path d="M341.169 192.656L342.037 192.873V193.524L340.736 194.174H340.302L340.519 193.524L341.169 192.656Z" fill="#FEFCFC"/>
<path d="M326.636 141.899L327.72 142.116V142.983L327.07 143.2L326.419 142.767V142.116L326.636 141.899Z" fill="#FEFCFC"/>
<path d="M135.537 259.898L137.49 260.549L137.706 261.417H137.273V260.983L136.188 260.766L135.537 260.332V259.898Z" fill="#FEFCFC"/>
<path d="M111.461 245.799L113.847 247.317L114.281 247.751L113.196 247.534L111.461 246.233V245.799Z" fill="#FEFCFC"/>
<path d="M261.129 223.674L262.648 224.108V224.976L261.563 224.542L261.129 223.674Z" fill="#FEFCFC"/>
<path d="M231.412 322.152L231.629 322.585L232.93 322.802L233.147 323.887L231.412 322.802V322.152Z" fill="#FEFCFC"/>
<path d="M227.941 295.689L229.242 296.122L229.459 296.773L228.375 296.99L227.941 296.556V295.689Z" fill="#FEFCFC"/>
<path d="M255.923 293.737L256.791 294.387L256.574 295.255L255.706 295.472L255.489 294.604H256.14V294.171L255.706 293.954L255.923 293.737Z" fill="#FEFCFC"/>
<path d="M265.684 258.814L266.769 259.464L267.636 259.681V260.115L266.986 260.332L266.335 259.681L265.684 259.464V258.814Z" fill="#FEFCFC"/>
<path d="M259.611 251.439L260.044 252.307L259.394 252.524L259.177 252.957L258.743 252.09L259.394 251.873L259.611 251.439Z" fill="#FEFCFC"/>
<path d="M262.864 46.8918L263.732 47.5425L263.515 48.1933L262.647 47.9763L262.43 47.1087L262.864 46.8918Z" fill="#FEFCFC"/>
<path d="M225.555 293.737L226.857 294.171L227.074 294.604H226.64L226.423 295.038L225.555 294.387V293.737Z" fill="#FEFCFC"/>
<path d="M146.383 273.78L148.118 274.431V274.865L146.6 274.431L146.383 273.78Z" fill="#FEFCFC"/>
<path d="M284.555 224.542L286.507 224.758L286.29 225.409L285.423 225.192L284.555 224.758V224.542Z" fill="#FEFCFC"/>
<path d="M349.195 217.601L349.846 217.817V218.468L348.761 218.685L349.195 217.601Z" fill="#FEFCFC"/>
<path d="M272.625 102.204L273.492 102.421V103.072L272.408 102.855L272.625 102.204Z" fill="#FEFCFC"/>
<path d="M247.68 304.148H248.331L248.548 304.582L249.198 304.799L248.114 305.015L247.463 304.582L247.68 304.148Z" fill="#FEFCFC"/>
<path d="M285.206 238.424H286.507L286.29 239.075L285.206 238.858V238.424Z" fill="#FEFCFC"/>
<path d="M261.562 222.59H262.864L263.081 223.023L262.647 223.24V223.674H262.213L261.996 223.023L261.562 222.59Z" fill="#FEFCFC"/>
<path d="M184.126 178.774H184.56L184.993 179.208L185.427 179.858L184.126 179.425V178.774Z" fill="#FEFCFC"/>
<path d="M227.074 96.5641L227.941 96.7811L228.809 97.2149V97.6487L227.724 97.2149L227.074 96.5641Z" fill="#FEFCFC"/>
<path d="M174.581 419.762L176.1 420.195V420.629L174.798 420.195L174.581 419.762Z" fill="#FEFCFC"/>
<path d="M240.088 327.574L240.956 328.008L241.607 328.442L241.39 328.876L240.305 328.225L240.088 327.574Z" fill="#FEFCFC"/>
<path d="M159.181 273.564L160.266 273.781L160.049 274.431L159.181 273.998V273.564Z" fill="#FEFCFC"/>
<path d="M164.604 196.777L165.905 197.211L165.688 197.861L165.471 197.428L164.604 196.994V196.777Z" fill="#FEFCFC"/>
<path d="M352.015 230.615L352.232 231.049H351.798V231.7L351.147 231.483L351.364 230.832L352.015 230.615Z" fill="#FEFCFC"/>
<path d="M296.268 190.704L296.702 190.921L295.617 191.789L295.183 191.572L295.4 191.138L296.268 190.704Z" fill="#FEFCFC"/>
<path d="M249.849 326.056L251.151 326.49L250.934 326.924L249.849 326.49V326.056Z" fill="#FEFCFC"/>
<path d="M217.747 289.615L219.049 290.049V290.483L218.181 290.266L217.747 290.049V289.615Z" fill="#FEFCFC"/>
<path d="M288.243 253.608H289.328L288.243 254.476V253.608Z" fill="#FEFCFC"/>
<path d="M255.923 322.369L257.007 323.02V323.453L256.14 323.02L255.923 322.369Z" fill="#FEFCFC"/>
<path d="M174.581 289.615L175.666 290.266L175.449 290.699L174.581 290.049V289.615Z" fill="#FEFCFC"/>
<path d="M213.408 287.229L213.842 287.663H213.191V288.097H212.757V287.446L213.408 287.229Z" fill="#FEFCFC"/>
<path d="M196.923 277.685L198.225 277.902L198.008 278.336L196.923 277.902V277.685Z" fill="#FEFCFC"/>
<path d="M280.433 269.226L281.518 269.442V269.659L280 269.876L280.433 269.226Z" fill="#FEFCFC"/>
<path d="M286.724 253.825H287.592L287.809 254.692L287.158 254.475L286.724 253.825Z" fill="#FEFCFC"/>
<path d="M255.489 207.84L256.574 208.057L256.357 208.707L255.923 208.49L256.14 208.057L255.489 207.84Z" fill="#FEFCFC"/>
<path d="M299.522 154.48V155.131L298.437 155.347L299.522 154.48Z" fill="#FEFCFC"/>
<path d="M272.842 314.777H273.276L273.059 315.644L272.625 315.861L272.842 314.777Z" fill="#FEFCFC"/>
<path d="M201.044 279.637L202.129 279.854L202.346 280.288L201.044 279.854V279.637Z" fill="#FEFCFC"/>
<path d="M135.321 239.509L136.405 239.943L135.538 240.16L135.321 239.509Z" fill="#FEFCFC"/>
<path d="M246.813 331.479L247.897 332.13H247.247L246.813 331.913V331.479Z" fill="#FEFCFC"/>
<path d="M222.302 317.38L223.386 317.814L223.169 318.247L222.302 317.38Z" fill="#FEFCFC"/>
<path d="M249.199 308.27H249.633L249.85 309.137L249.199 308.92V308.27Z" fill="#FEFCFC"/>
<path d="M243.125 300.678L243.992 300.895V301.328L243.125 301.112V300.678Z" fill="#FEFCFC"/>
<path d="M283.687 224.542L284.338 224.758V225.192L283.47 224.758L283.687 224.542Z" fill="#FEFCFC"/>
<path d="M285.206 223.674L286.073 223.891L285.857 224.325L285.206 224.108V223.674Z" fill="#FEFCFC"/>
<path d="M264.816 199.38L265.9 199.814L265.25 200.031L264.816 199.814V199.38Z" fill="#FEFCFC"/>
<path d="M160.482 197.861L161.784 198.078V198.295H160.699L160.482 197.861Z" fill="#FEFCFC"/>
<path d="M183.258 178.123H183.692V178.991H183.258V178.123Z" fill="#FEFCFC"/>
<path d="M295.184 172.049L295.618 172.483L294.533 172.917L294.75 172.483H295.184V172.049Z" fill="#FEFCFC"/>
<path d="M234.665 162.939L235.099 163.373L234.882 163.807H234.448L234.665 162.939Z" fill="#FEFCFC"/>
<path d="M246.813 306.317L247.246 306.968L246.596 307.401L246.813 306.317Z" fill="#FEFCFC"/>
<path d="M221.217 291.568L222.085 292.001H221.217V291.568Z" fill="#FEFCFC"/>
<path d="M166.989 285.71L168.074 285.927L167.857 286.361L166.989 285.71Z" fill="#FEFCFC"/>
<path d="M276.53 275.082H277.397L277.18 275.733L276.963 275.299L276.53 275.082Z" fill="#FEFCFC"/>
<path d="M132.935 258.596L134.019 259.03L133.585 259.247L132.935 258.596Z" fill="#FEFCFC"/>
<path d="M263.298 227.795L263.949 228.012V228.446L263.298 228.229V227.795Z" fill="#FEFCFC"/>
<path d="M137.49 227.362H138.358V227.795L137.49 227.578V227.362Z" fill="#FEFCFC"/>
<path d="M266.118 226.06L266.985 226.277L266.551 226.711L266.118 226.06Z" fill="#FEFCFC"/>
<path d="M266.552 195.692L267.637 195.909V196.126H266.552V195.692Z" fill="#FEFCFC"/>
<path d="M262.864 163.59L263.732 164.024L263.081 164.241L262.864 163.59Z" fill="#FEFCFC"/>
<path d="M307.331 154.263H307.765V154.697H306.681L307.331 154.263Z" fill="#FEFCFC"/>
<path d="M264.599 328.225L265.467 328.442L265.25 328.876L264.599 328.225Z" fill="#FEFCFC"/>
<path d="M225.772 319.332L226.423 319.549L225.989 319.982L225.772 319.332Z" fill="#FEFCFC"/>
<path d="M231.846 298.291L232.497 298.942H231.846V298.291Z" fill="#FEFCFC"/>
<path d="M256.574 297.207L257.441 297.424L256.791 297.641L256.574 297.207Z" fill="#FEFCFC"/>
<path d="M219.482 290.699L220.349 290.916L220.132 291.35L219.482 290.699Z" fill="#FEFCFC"/>
<path d="M205.382 282.891L205.816 283.108V283.542L205.166 283.325L205.382 282.891Z" fill="#FEFCFC"/>
<path d="M166.773 277.685H167.424V278.119H166.773V277.685Z" fill="#FEFCFC"/>
<path d="M291.062 250.354L291.713 250.571V251.005L291.062 250.788V250.354Z" fill="#FEFCFC"/>
<path d="M349.628 231.7H350.496V232.134L349.628 231.7Z" fill="#FEFCFC"/>
<path d="M261.562 226.928L262.213 227.579H261.562V226.928Z" fill="#FEFCFC"/>
<path d="M138.14 226.494L138.574 226.711L138.357 227.362L138.14 226.494Z" fill="#FEFCFC"/>
<path d="M182.39 177.906L183.041 178.123L182.607 178.556L182.39 177.906Z" fill="#FEFCFC"/>
<path d="M281.085 165.325L281.735 165.542L280.868 165.759L281.085 165.325Z" fill="#FEFCFC"/>
<path d="M314.055 163.807H314.923V164.24H314.055V163.807Z" fill="#FEFCFC"/>
<path d="M308.199 153.612L309.066 153.829L307.982 154.046L308.199 153.612Z" fill="#FEFCFC"/>
<path d="M301.691 153.178L302.342 153.395L301.474 153.612L301.691 153.178Z" fill="#FEFCFC"/>
<path d="M202.78 148.623H203.214L203.431 149.273L202.78 149.057V148.623Z" fill="#FEFCFC"/>
<path d="M270.673 84.4175H271.107V85.0683H270.673V84.4175Z" fill="#FEFCFC"/>
<path d="M266.118 47.3254L267.202 47.5424V47.7593H266.118V47.3254Z" fill="#FEFCFC"/>
<path d="M263.948 335.166L264.816 335.6L263.948 335.383V335.166Z" fill="#FEFCFC"/>
<path d="M239.655 327.141L240.089 327.574H239.438L239.655 327.141Z" fill="#FEFCFC"/>
<path d="M232.714 315.861H233.147L232.931 316.512L232.714 315.861Z" fill="#FEFCFC"/>
<path d="M230.978 297.858L231.412 298.075V298.508H230.978V297.858Z" fill="#FEFCFC"/>
<path d="M227.074 294.821L227.724 295.038L227.291 295.472L227.074 294.821Z" fill="#FEFCFC"/>
<path d="M222.518 292.435L223.169 292.869H222.518V292.435Z" fill="#FEFCFC"/>
<path d="M204.081 282.023L204.515 282.24V282.674H204.081V282.023Z" fill="#FEFCFC"/>
<path d="M278.048 272.696L278.482 272.913V273.347H278.048V272.696Z" fill="#FEFCFC"/>
<path d="M283.037 267.49L283.254 267.924L282.603 268.141V267.707L283.037 267.49Z" fill="#FEFCFC"/>
<path d="M266.118 244.714L266.768 244.931L266.551 245.365L266.118 244.714Z" fill="#FEFCFC"/>
<path d="M257.658 234.736L258.309 234.953L257.658 235.17V234.736Z" fill="#FEFCFC"/>
<path d="M261.78 226.06H262.43V226.494L261.78 226.277V226.06Z" fill="#FEFCFC"/>
<path d="M284.555 225.843H284.989V226.277L284.338 226.06L284.555 225.843Z" fill="#FEFCFC"/>
<path d="M265.25 225.41L265.684 225.843L265.033 226.06L265.25 225.41Z" fill="#FEFCFC"/>
<path d="M262.647 223.674L263.297 223.891L263.081 224.325L262.647 223.674Z" fill="#FEFCFC"/>
<path d="M260.478 223.24H260.912L260.695 223.891L260.478 223.24Z" fill="#FEFCFC"/>
<path d="M185.861 179.858H186.511V180.292L185.861 180.075V179.858Z" fill="#FEFCFC"/>
<path d="M282.603 179.208H283.254V179.641H282.603V179.208Z" fill="#FEFCFC"/>
<path d="M237.919 154.696H238.353L238.136 155.347L237.919 154.696Z" fill="#FEFCFC"/>
<path d="M309.067 149.057L309.717 149.274L308.85 149.491L309.067 149.057Z" fill="#FEFCFC"/>
<path d="M268.07 69.2337L268.287 70.1014L267.853 69.4506L268.07 69.2337Z" fill="#FEFCFC"/>
<path d="M255.707 47.3254H256.791V47.5424H255.707V47.3254Z" fill="#FEFCFC"/>
<path d="M218.18 455.986H218.618V456.424H218.18V455.986Z" fill="#FEFCFC"/>
<path d="M219.265 454.901H219.703V455.339H219.265V454.901Z" fill="#FEFCFC"/>
<path d="M206.901 450.129L207.335 450.563L206.684 450.346L206.901 450.129Z" fill="#FEFCFC"/>
<path d="M204.949 449.262H205.387V449.7H204.949V449.262Z" fill="#FEFCFC"/>
<path d="M275.662 338.203L276.096 338.42H275.445L275.662 338.203Z" fill="#FEFCFC"/>
<path d="M147.251 338.203L147.902 338.42H147.251V338.203Z" fill="#FEFCFC"/>
<path d="M267.202 337.119H267.853L267.636 337.553L267.202 337.119Z" fill="#FEFCFC"/>
<path d="M251.368 333.648L252.019 333.865H251.368V333.648Z" fill="#FEFCFC"/>
<path d="M253.97 328.659L254.621 328.876H253.97V328.659Z" fill="#FEFCFC"/>
<path d="M249.199 325.622L249.85 325.839H249.199V325.622Z" fill="#FEFCFC"/>
<path d="M258.743 324.972L259.394 325.188H258.743V324.972Z" fill="#FEFCFC"/>
<path d="M234.883 324.754L235.534 324.971H234.883V324.754Z" fill="#FEFCFC"/>
<path d="M249.199 306.968L249.633 307.402L249.199 307.619V306.968Z" fill="#FEFCFC"/>
<path d="M245.945 306.317L246.596 306.534H245.945V306.317Z" fill="#FEFCFC"/>
<path d="M258.96 299.593L259.177 300.244L258.743 300.027L258.96 299.593Z" fill="#FEFCFC"/>
<path d="M214.059 287.663H214.493L214.276 288.314L214.059 287.663Z" fill="#FEFCFC"/>
<path d="M170.243 287.446L170.894 287.663H170.243V287.446Z" fill="#FEFCFC"/>
<path d="M212.107 286.795L212.758 287.012L212.107 287.229V286.795Z" fill="#FEFCFC"/>
<path d="M207.552 284.409L207.986 284.626L207.769 285.06L207.552 284.409Z" fill="#FEFCFC"/>
<path d="M206.684 283.976L207.118 284.193L206.901 284.626L206.684 283.976Z" fill="#FEFCFC"/>
<path d="M206.033 283.325L206.467 283.542L206.033 283.975V283.325Z" fill="#FEFCFC"/>
<path d="M144.431 280.938L144.864 281.372L144.214 281.155L144.431 280.938Z" fill="#FEFCFC"/>
<path d="M318.176 280.505H318.615V280.943H318.176V280.505Z" fill="#FEFCFC"/>
<path d="M157.879 280.288L158.53 280.505H157.879V280.288Z" fill="#FEFCFC"/>
<path d="M200.827 276.818L201.261 277.468H200.827V276.818Z" fill="#FEFCFC"/>
<path d="M150.07 275.95L150.721 276.166H150.07V275.95Z" fill="#FEFCFC"/>
<path d="M160.483 273.997L160.916 274.431L160.266 274.214L160.483 273.997Z" fill="#FEFCFC"/>
<path d="M283.037 269.659L283.471 269.876L283.254 270.31L283.037 269.659Z" fill="#FEFCFC"/>
<path d="M256.356 265.104L256.79 265.755H256.356V265.104Z" fill="#FEFCFC"/>
<path d="M125.56 261.85L126.211 262.067H125.56V261.85Z" fill="#FEFCFC"/>
<path d="M264.816 258.38L265.25 258.814L264.816 259.031V258.38Z" fill="#FEFCFC"/>
<path d="M291.28 249.704L291.93 250.137H291.28V249.704Z" fill="#FEFCFC"/>
<path d="M291.93 237.34L292.364 237.557H291.713L291.93 237.34Z" fill="#FEFCFC"/>
<path d="M282.169 226.928L282.82 227.145H282.169V226.928Z" fill="#FEFCFC"/>
<path d="M135.971 223.24L136.405 223.457L136.188 223.891L135.971 223.24Z" fill="#FEFCFC"/>
<path d="M252.236 217.601L252.886 217.817H252.236V217.601Z" fill="#FEFCFC"/>
<path d="M266.769 198.512L267.419 198.946H266.769V198.512Z" fill="#FEFCFC"/>
<path d="M309.934 197.645L310.368 197.862H309.717L309.934 197.645Z" fill="#FEFCFC"/>
<path d="M314.055 195.259L314.706 195.476H314.055V195.259Z" fill="#FEFCFC"/>
<path d="M290.629 192.656L290.846 193.307L290.412 193.09L290.629 192.656Z" fill="#FEFCFC"/>
<path d="M291.497 191.571L292.148 192.005H291.497V191.571Z" fill="#FEFCFC"/>
<path d="M281.952 179.641H282.39V180.079H281.952V179.641Z" fill="#FEFCFC"/>
<path d="M276.746 167.277L277.397 167.494H276.746V167.277Z" fill="#FEFCFC"/>
<path d="M278.699 166.844L279.133 167.061H278.482L278.699 166.844Z" fill="#FEFCFC"/>
<path d="M312.537 166.627L312.971 166.843H312.32L312.537 166.627Z" fill="#FEFCFC"/>
<path d="M293.231 157.299H293.67V157.737H293.231V157.299Z" fill="#FEFCFC"/>
<path d="M306.246 154.696L306.68 154.913H306.029L306.246 154.696Z" fill="#FEFCFC"/>
<path d="M226.423 96.1305L227.074 96.5643H226.423V96.1305Z" fill="#FEFCFC"/>
<path d="M270.456 88.1049L270.89 88.3218L270.456 88.7556V88.1049Z" fill="#FEFCFC"/>
<path d="M264.383 54.4836L264.817 54.9174L264.383 55.1343V54.4836Z" fill="#FEFCFC"/>
<path d="M218.614 456.42L219.053 456.858H218.614V456.42Z" fill="#FEFCFC"/>
<path d="M202.78 445.791H203.218L202.999 446.229L202.78 445.791Z" fill="#FEFCFC"/>
<path d="M276.313 337.986L276.751 338.205L276.313 338.425V337.986Z" fill="#FEFCFC"/>
<path d="M262.647 333.648H263.085L262.866 334.086L262.647 333.648Z" fill="#FEFCFC"/>
<path d="M246.378 331.045L246.817 331.483H246.378V331.045Z" fill="#FEFCFC"/>
<path d="M270.673 330.394L271.111 330.833H270.673V330.394Z" fill="#FEFCFC"/>
<path d="M267.419 329.744L267.858 329.963L267.419 330.182V329.744Z" fill="#FEFCFC"/>
<path d="M252.669 328.225L253.107 328.663H252.669V328.225Z" fill="#FEFCFC"/>
<path d="M240.956 327.574H241.394L241.175 328.013L240.956 327.574Z" fill="#FEFCFC"/>
<path d="M247.463 324.538L247.901 324.976H247.463V324.538Z" fill="#FEFCFC"/>
<path d="M234.232 324.104L234.67 324.542H234.232V324.104Z" fill="#FEFCFC"/>
<path d="M244.644 323.02H245.082L244.863 323.458L244.644 323.02Z" fill="#FEFCFC"/>
<path d="M247.463 307.619L247.901 308.057H247.463V307.619Z" fill="#FEFCFC"/>
<path d="M259.61 300.244L260.049 300.463L259.61 300.682V300.244Z" fill="#FEFCFC"/>
<path d="M260.045 300.027H260.483L260.264 300.465L260.045 300.027Z" fill="#FEFCFC"/>
<path d="M233.15 299.159L233.369 299.598L232.931 299.379L233.15 299.159Z" fill="#FEFCFC"/>
<path d="M256.139 298.075L256.578 298.294L256.139 298.513V298.075Z" fill="#FEFCFC"/>
<path d="M298.221 292.652L298.659 292.871L298.221 293.09V292.652Z" fill="#FEFCFC"/>
<path d="M218.832 291.133L219.27 291.352L218.832 291.571V291.133Z" fill="#FEFCFC"/>
<path d="M213.625 288.097L214.063 288.316L213.625 288.535V288.097Z" fill="#FEFCFC"/>
<path d="M210.155 285.71L210.593 286.149H210.155V285.71Z" fill="#FEFCFC"/>
<path d="M268.504 285.277L268.942 285.496L268.504 285.715V285.277Z" fill="#FEFCFC"/>
<path d="M208.419 285.06L208.857 285.498H208.419V285.06Z" fill="#FEFCFC"/>
<path d="M166.558 285.06L166.777 285.498L166.339 285.279L166.558 285.06Z" fill="#FEFCFC"/>
<path d="M239.438 284.409H239.876L239.657 284.848L239.438 284.409Z" fill="#FEFCFC"/>
<path d="M314.705 283.108L315.144 283.327L314.705 283.546V283.108Z" fill="#FEFCFC"/>
<path d="M204.517 282.674L204.736 283.112L204.298 282.893L204.517 282.674Z" fill="#FEFCFC"/>
<path d="M201.698 280.938L201.917 281.377L201.479 281.158L201.698 280.938Z" fill="#FEFCFC"/>
<path d="M285.64 269.876L286.078 270.096L285.64 270.315V269.876Z" fill="#FEFCFC"/>
<path d="M150.287 268.141L150.726 268.579H150.287V268.141Z" fill="#FEFCFC"/>
<path d="M257.224 266.188H257.662L257.443 266.627L257.224 266.188Z" fill="#FEFCFC"/>
<path d="M260.912 256.427L261.35 256.647L260.912 256.866V256.427Z" fill="#FEFCFC"/>
<path d="M259.829 255.343L260.049 255.781L259.61 255.562L259.829 255.343Z" fill="#FEFCFC"/>
<path d="M264.599 254.693L265.038 254.912L264.599 255.131V254.693Z" fill="#FEFCFC"/>
<path d="M264.599 239.943L265.038 240.162L264.599 240.381V239.943Z" fill="#FEFCFC"/>
<path d="M258.095 239.943L258.314 240.381L257.875 240.162L258.095 239.943Z" fill="#FEFCFC"/>
<path d="M274.363 230.398L274.582 230.836L274.144 230.617L274.363 230.398Z" fill="#FEFCFC"/>
<path d="M262.866 227.144L263.085 227.583L262.647 227.364L262.866 227.144Z" fill="#FEFCFC"/>
<path d="M284.121 225.626L284.56 225.845L284.121 226.064V225.626Z" fill="#FEFCFC"/>
<path d="M288.243 224.542L288.681 224.761L288.243 224.98V224.542Z" fill="#FEFCFC"/>
<path d="M287.161 222.806L287.38 223.244L286.941 223.025L287.161 222.806Z" fill="#FEFCFC"/>
<path d="M146.383 216.299L146.821 216.737H146.383V216.299Z" fill="#FEFCFC"/>
<path d="M304.728 200.465H305.166L304.947 200.903L304.728 200.465Z" fill="#FEFCFC"/>
<path d="M306.463 199.597L306.902 199.816L306.463 200.035V199.597Z" fill="#FEFCFC"/>
<path d="M278.698 196.994L279.137 197.213L278.698 197.432V196.994Z" fill="#FEFCFC"/>
<path d="M281.302 195.259H281.74L281.521 195.697L281.302 195.259Z" fill="#FEFCFC"/>
<path d="M291.28 190.92H291.718L291.499 191.359L291.28 190.92Z" fill="#FEFCFC"/>
<path d="M292.366 190.704L292.585 191.142L292.147 190.923L292.366 190.704Z" fill="#FEFCFC"/>
<path d="M292.581 190.27L293.02 190.708H292.581V190.27Z" fill="#FEFCFC"/>
<path d="M293.014 190.053H293.453L293.234 190.491L293.014 190.053Z" fill="#FEFCFC"/>
<path d="M263.081 183.328L263.519 183.767H263.081V183.328Z" fill="#FEFCFC"/>
<path d="M173.497 175.086L173.935 175.525H173.497V175.086Z" fill="#FEFCFC"/>
<path d="M267.636 166.41L268.075 166.629L267.636 166.848V166.41Z" fill="#FEFCFC"/>
<path d="M279.786 166.193L280.005 166.631L279.567 166.412L279.786 166.193Z" fill="#FEFCFC"/>
<path d="M278.701 165.976L278.92 166.414L278.482 166.195L278.701 165.976Z" fill="#FEFCFC"/>
<path d="M280.434 165.759L280.872 165.978L280.434 166.197V165.759Z" fill="#FEFCFC"/>
<path d="M280.217 165.108L280.655 165.327L280.217 165.547V165.108Z" fill="#FEFCFC"/>
<path d="M264.816 164.674H265.254L265.035 165.113L264.816 164.674Z" fill="#FEFCFC"/>
<path d="M291.497 158.384L291.935 158.603L291.497 158.822V158.384Z" fill="#FEFCFC"/>
<path d="M243.125 157.734H243.563L243.344 158.172L243.125 157.734Z" fill="#FEFCFC"/>
<path d="M237.052 154.263L237.49 154.701H237.052V154.263Z" fill="#FEFCFC"/>
<path d="M209.287 153.178H209.725L209.506 153.616L209.287 153.178Z" fill="#FEFCFC"/>
<path d="M211.673 152.311L212.111 152.749H211.673V152.311Z" fill="#FEFCFC"/>
<path d="M305.596 151.009L306.034 151.228L305.596 151.447V151.009Z" fill="#FEFCFC"/>
<path d="M203.213 149.707H203.652L203.433 150.146L203.213 149.707Z" fill="#FEFCFC"/>
<path d="M202.129 148.406H202.567L202.348 148.844L202.129 148.406Z" fill="#FEFCFC"/>
<path d="M310.804 148.189L311.023 148.627L310.584 148.408L310.804 148.189Z" fill="#FEFCFC"/>
<path d="M202.563 147.755L203.001 148.194H202.563V147.755Z" fill="#FEFCFC"/>
<path d="M199.743 147.538L200.181 147.757L199.743 147.977V147.538Z" fill="#FEFCFC"/>
<path d="M299.305 94.8294H299.743L299.524 95.2677L299.305 94.8294Z" fill="#FEFCFC"/>
<path d="M226.64 85.9358L227.078 86.1549L226.64 86.374V85.9358Z" fill="#FEFCFC"/>
<path d="M267.853 72.7039L268.291 72.923L267.853 73.1422V72.7039Z" fill="#FEFCFC"/>
</svg>
